M48
INCH,TZ
T1C0.0079
T2C0.0118
T3C0.0157
T4C0.0177
T5C0.0256
T6C0.0866
T7C0.3346
%
G90
G05
T1
X27594Y-37616
X27665Y-36359
X28201Y-37133
X28353Y-37408
X28367Y-36359
X28430Y-37990
X28934Y-36364
X29202Y-37349
X29370Y-36319
X29407Y-36995
X29495Y-38000
X29871Y-37046
X29881Y-34050
X29883Y-33808
X30039Y-44622
X30393Y-43677
X30397Y-44756
X30566Y-35650
X30612Y-35866
X30640Y-44294
X30826Y-45015
X30865Y-35275
X30880Y-36331
X30950Y-43200
X31164Y-36220
X31471Y-36066
X31833Y-35931
X31882Y-34730
X32086Y-30355
X32229Y-35890
X32291Y-34933
X32368Y-33941
X32442Y-32642
X32497Y-35787
X32551Y-29384
X32556Y-33688
X33005Y-35822
X33016Y-35345
X33036Y-34531
X33039Y-34920
X33073Y-33463
X33084Y-36283
X33337Y-33479
X33462Y-44613
X33479Y-36301
X33533Y-46072
X33536Y-35844
X33554Y-35425
X33661Y-30197
X33664Y-45491
X33726Y-45169
X33823Y-44801
X33842Y-33658
X33877Y-32824
X33883Y-45319
X33918Y-28542
X34006Y-34645
X34058Y-35427
X34105Y-34070
X34154Y-46051
X34161Y-36204
X34304Y-44540
X34370Y-32062
X34455Y-46120
X34488Y-46771
X34550Y-33000
X34586Y-35462
X34612Y-34846
X34617Y-44770
X34636Y-35914
X34661Y-34267
X34662Y-46051
X34674Y-34050
X34742Y-44592
X34758Y-33063
X34784Y-33723
X34817Y-36035
X34839Y-35743
X34891Y-45446
X34910Y-46042
X35024Y-47921
X35025Y-46879
X35046Y-36318
X35052Y-46445
X35070Y-37720
X35071Y-44780
X35154Y-35936
X35289Y-44780
X35436Y-45264
X35437Y-47080
X35441Y-33750
X35460Y-35031
X35492Y-35908
X35551Y-33084
X35558Y-44860
X35567Y-45090
X35590Y-33510
X35609Y-34211
X35620Y-45381
X35671Y-34840
X35676Y-35058
X35706Y-46732
X35784Y-47901
X35791Y-46340
X35838Y-37360
X35893Y-44846
X35943Y-46794
X35968Y-46128
X36071Y-46969
X36099Y-36712
X36194Y-47901
X36198Y-46790
X36378Y-32597
X36554Y-47881
X36567Y-36563
X36607Y-33047
X36607Y-34950
X36622Y-46912
X36712Y-44627
X36757Y-35903
X36820Y-37679
X36845Y-46806
X36883Y-44447
X36913Y-34779
X36933Y-36211
X37060Y-46912
X37064Y-44613
X37094Y-35916
X37095Y-35112
X37157Y-47891
X37188Y-41600
X37194Y-37662
X37200Y-41250
X37278Y-46906
X37315Y-36527
X37432Y-35859
X37432Y-35068
X37522Y-36610
X37526Y-44650
X37611Y-46762
X37613Y-34911
X37717Y-46416
X37784Y-44481
X37786Y-35896
X37804Y-35021
X37829Y-46758
X37905Y-46526
X37914Y-41530
X38046Y-36220
X38065Y-46854
X38124Y-35881
X38187Y-47891
X38252Y-45608
X38294Y-41347
X38343Y-35883
X38355Y-35000
X38680Y-35980
X38934Y-44701
X39023Y-47429
X39024Y-48021
X39050Y-45405
X39051Y-45188
X39117Y-46407
X39157Y-45870
X39190Y-35980
X39280Y-47910
X39363Y-44712
X39381Y-45015
X39414Y-46311
X39445Y-45585
X39499Y-48000
X39500Y-47300
X39533Y-46928
X39588Y-45749
X39700Y-35980
X39754Y-44921
X39874Y-46971
X40210Y-35980
X42992Y-45121
T2
X33895Y-29063
X34015Y-29361
X35839Y-35924
X36156Y-35922
X37824Y-44921
X42320Y-43689
T3
X27297Y-37141
X27625Y-37977
X29054Y-43504
X29952Y-36164
X30003Y-34589
X30080Y-35537
X30368Y-35102
X30445Y-33436
X30485Y-37210
X30795Y-32965
X30827Y-33546
X31093Y-45508
X32176Y-29114
X32550Y-37650
X32695Y-36392
X32700Y-30138
X32877Y-33941
X33374Y-45421
X33526Y-33710
X33706Y-36111
X33802Y-33362
X34023Y-35910
X36470Y-37450
X37410Y-32765
X41717Y-43401
X42687Y-44409
X43096Y-46004
T4
X28739Y-32985
X28739Y-33300
X28739Y-33615
X28739Y-34245
X28739Y-34560
X28739Y-34875
X29014Y-32828
X29014Y-33458
X29014Y-33773
X29014Y-34087
X29014Y-34402
X29014Y-35032
T6
X33554Y-47261
X31730Y-36980
T7
X39200Y-54200
X26700Y-44700
X45950Y-44700
T5
G00X27735Y-32119
M15
G01X27341Y-32119
M16
G05
G00X27735Y-35741
M15
G01X27341Y-35741
M16
G05
G00X28916Y-32119
M15
G01X28522Y-32119
M16
G05
G00X28916Y-35741
M15
G01X28522Y-35741
M16
G05
T0
M30
