G04 #@! TF.GenerationSoftware,KiCad,Pcbnew,(5.1.4-0-10_14)*
G04 #@! TF.CreationDate,2020-04-27T00:49:30-05:00*
G04 #@! TF.ProjectId,Lifedatalink_v1_revA,4c696665-6461-4746-916c-696e6b5f7631,rev?*
G04 #@! TF.SameCoordinates,Original*
G04 #@! TF.FileFunction,Legend,Top*
G04 #@! TF.FilePolarity,Positive*
%FSLAX46Y46*%
G04 Gerber Fmt 4.6, Leading zero omitted, Abs format (unit mm)*
G04 Created by KiCad (PCBNEW (5.1.4-0-10_14)) date 2020-04-27 00:49:30*
%MOMM*%
%LPD*%
G04 APERTURE LIST*
%ADD10C,0.100000*%
%ADD11C,0.127000*%
%ADD12C,0.120000*%
%ADD13C,0.200000*%
G04 APERTURE END LIST*
D10*
X106152640Y-109470060D02*
X106552640Y-109470060D01*
X106152640Y-109870060D02*
X106152640Y-109470060D01*
X106152640Y-112470060D02*
X106552640Y-112470060D01*
X106152640Y-112070060D02*
X106152640Y-112470060D01*
X109952640Y-109470060D02*
X109952640Y-109870060D01*
X109552640Y-109470060D02*
X109952640Y-109470060D01*
X109952640Y-112470060D02*
X109952640Y-112070060D01*
X109552640Y-112470060D02*
X109952640Y-112470060D01*
X109638140Y-113751560D02*
G75*
G03X109638140Y-113751560I-50000J0D01*
G01*
D11*
X105138140Y-113781560D02*
X105138140Y-116921560D01*
X109138140Y-113001560D02*
X106608140Y-113001560D01*
X109138140Y-117701560D02*
X106608140Y-117701560D01*
X109138140Y-113001560D02*
X109138140Y-117701560D01*
D10*
X75061440Y-116936320D02*
G75*
G03X75061440Y-116936320I-50000J0D01*
G01*
D11*
X79461440Y-116906320D02*
X79461440Y-113766320D01*
X75461440Y-117686320D02*
X77991440Y-117686320D01*
X75461440Y-112986320D02*
X77991440Y-112986320D01*
X75461440Y-117686320D02*
X75461440Y-112986320D01*
X74657800Y-97911200D02*
X74257800Y-97661200D01*
X75557800Y-97911200D02*
X75957800Y-97661200D01*
X75957800Y-97211200D02*
X75957800Y-97661200D01*
X74257800Y-97211200D02*
X74257800Y-97661200D01*
X75557800Y-97911200D02*
X74657800Y-97911200D01*
D10*
X73157800Y-94761200D02*
G75*
G03X73157800Y-94761200I-50000J0D01*
G01*
D11*
X75957800Y-97211200D02*
X76607800Y-97211200D01*
X74257800Y-97211200D02*
X75957800Y-97211200D01*
X73607800Y-97211200D02*
X74257800Y-97211200D01*
X76607800Y-94711200D02*
X73607800Y-94711200D01*
D12*
X73256461Y-94761200D02*
G75*
G03X73256461Y-94761200I-148661J0D01*
G01*
X79450000Y-88015578D02*
X79450000Y-87498422D01*
X78030000Y-88015578D02*
X78030000Y-87498422D01*
X80883000Y-81189000D02*
X80883000Y-85089000D01*
X78883000Y-81189000D02*
X78883000Y-85089000D01*
X80883000Y-81189000D02*
X78883000Y-81189000D01*
D10*
X76388200Y-85936200D02*
G75*
G03X76388200Y-85936200I-50000J0D01*
G01*
X78446940Y-112454820D02*
X78046940Y-112454820D01*
X78446940Y-112054820D02*
X78446940Y-112454820D01*
X78446940Y-109454820D02*
X78046940Y-109454820D01*
X78446940Y-109854820D02*
X78446940Y-109454820D01*
X74646940Y-112454820D02*
X74646940Y-112054820D01*
X75046940Y-112454820D02*
X74646940Y-112454820D01*
X74646940Y-109454820D02*
X74646940Y-109854820D01*
X75046940Y-109454820D02*
X74646940Y-109454820D01*
X87977020Y-113472160D02*
G75*
G03X87977020Y-113472160I-50000J0D01*
G01*
D11*
X83477020Y-113502160D02*
X83477020Y-116642160D01*
X87477020Y-112722160D02*
X84947020Y-112722160D01*
X87477020Y-117422160D02*
X84947020Y-117422160D01*
X87477020Y-112722160D02*
X87477020Y-117422160D01*
D10*
X96874960Y-116672160D02*
G75*
G03X96874960Y-116672160I-50000J0D01*
G01*
D11*
X101274960Y-116642160D02*
X101274960Y-113502160D01*
X97274960Y-117422160D02*
X99804960Y-117422160D01*
X97274960Y-112722160D02*
X99804960Y-112722160D01*
X97274960Y-117422160D02*
X97274960Y-112722160D01*
X88181800Y-90928200D02*
X88981800Y-90928200D01*
X88181800Y-90828200D02*
X88181800Y-90928200D01*
X88181800Y-80928200D02*
X88981800Y-80928200D01*
X88181800Y-81028200D02*
X88181800Y-80928200D01*
X103181800Y-90928200D02*
X102681800Y-90928200D01*
X103181800Y-80928200D02*
X103181800Y-90928200D01*
X98681800Y-80928200D02*
X103181800Y-80928200D01*
D13*
X98399912Y-89688200D02*
G75*
G03X98399912Y-89688200I-158112J0D01*
G01*
X72027756Y-96591200D02*
G75*
G03X72027756Y-96591200I-102956J0D01*
G01*
D11*
X70454800Y-94961200D02*
X69854800Y-94961200D01*
X70454800Y-96961200D02*
X69854800Y-96961200D01*
D12*
X91434800Y-95712200D02*
X91434800Y-93272200D01*
X84434800Y-95712200D02*
X84434800Y-93272200D01*
X92484800Y-95712200D02*
X91434800Y-95712200D01*
X83384800Y-95712200D02*
X84434800Y-95712200D01*
X92484800Y-97072200D02*
X92484800Y-95712200D01*
X83384800Y-97072200D02*
X83384800Y-95712200D01*
X91434800Y-97072200D02*
X92484800Y-97072200D01*
X84434800Y-97072200D02*
X83384800Y-97072200D01*
X91434800Y-94332200D02*
X91434800Y-97072200D01*
X84434800Y-94332200D02*
X84434800Y-97072200D01*
X84434800Y-94332200D02*
X91434800Y-94332200D01*
X84434800Y-93272200D02*
X91434800Y-93272200D01*
X84733110Y-92792200D02*
G75*
G03X84733110Y-92792200I-58310J0D01*
G01*
X78240000Y-91605000D02*
X79440000Y-91605000D01*
X78240000Y-90005000D02*
X79240000Y-90005000D01*
X80103800Y-86352200D02*
X80103800Y-86352200D01*
X80603800Y-86352200D02*
X80103800Y-86352200D01*
X80103800Y-88052200D02*
X80103800Y-88052200D01*
X80103800Y-88552200D02*
X80103800Y-88052200D01*
X80603800Y-88552200D02*
X80103800Y-88552200D01*
X81803800Y-88552200D02*
X81803800Y-88552200D01*
X82303800Y-88552200D02*
X81803800Y-88552200D01*
X82303800Y-88052200D02*
X82303800Y-88552200D01*
X82303800Y-86852200D02*
X82303800Y-86852200D01*
X82303800Y-86352200D02*
X82303800Y-86852200D01*
X81803800Y-86352200D02*
X82303800Y-86352200D01*
D13*
X100418000Y-130893000D02*
G75*
G03X100418000Y-130893000I-100000J0D01*
G01*
D11*
X100768000Y-126668000D02*
X98368000Y-126668000D01*
X97718000Y-130268000D02*
X97718000Y-126668000D01*
X101418000Y-130268000D02*
X97718000Y-130268000D01*
X101418000Y-126668000D02*
X101418000Y-130268000D01*
X75145800Y-81487200D02*
X74415800Y-81487200D01*
X65495800Y-81487200D02*
X65495800Y-90877200D01*
X65495800Y-90877200D02*
X68475800Y-90877200D01*
X75145800Y-82962200D02*
X75145800Y-81487200D01*
X65495800Y-81487200D02*
X68475800Y-81487200D01*
X75145800Y-90877200D02*
X75145800Y-89402200D01*
X75145800Y-90877200D02*
X74415800Y-90877200D01*
D13*
X76195800Y-83432200D02*
G75*
G03X76195800Y-83432200I-100000J0D01*
G01*
D10*
X85520800Y-85430200D02*
G75*
G03X85520800Y-85430200I-50000J0D01*
G01*
D11*
X85440800Y-80980200D02*
X82300800Y-80980200D01*
X86220800Y-84980200D02*
X86220800Y-82450200D01*
X81520800Y-84980200D02*
X81520800Y-82450200D01*
X86220800Y-84980200D02*
X81520800Y-84980200D01*
D10*
X94004800Y-92649200D02*
G75*
G03X94004800Y-92649200I-50000J0D01*
G01*
D11*
X93984800Y-97099200D02*
X97124800Y-97099200D01*
X93204800Y-93099200D02*
X93204800Y-95629200D01*
X97904800Y-93099200D02*
X97904800Y-95629200D01*
X93204800Y-93099200D02*
X97904800Y-93099200D01*
D10*
X97344680Y-105313840D02*
G75*
G03X97344680Y-105313840I-50000J0D01*
G01*
D11*
X97264680Y-100863840D02*
X94124680Y-100863840D01*
X98044680Y-104863840D02*
X98044680Y-102333840D01*
X93344680Y-104863840D02*
X93344680Y-102333840D01*
X98044680Y-104863840D02*
X93344680Y-104863840D01*
D12*
X81341640Y-75861020D02*
X81341640Y-72551020D01*
X87161640Y-74201020D02*
X87161640Y-75841020D01*
X94911480Y-106204040D02*
X94911480Y-106954040D01*
X95661480Y-106204040D02*
X94911480Y-106204040D01*
X95111480Y-108154040D02*
X96211480Y-108154040D01*
X96211480Y-106404040D02*
X96211480Y-108154040D01*
X96211480Y-106404040D02*
X95111480Y-106404040D01*
X95111480Y-106404040D02*
X95111480Y-108154040D01*
X95673960Y-118241340D02*
X96023960Y-118241340D01*
X91803960Y-114021340D02*
X91803960Y-114371340D01*
X92153960Y-114021340D02*
X91803960Y-114021340D01*
X96023960Y-114021340D02*
X96023960Y-114371340D01*
X95673960Y-114021340D02*
X96023960Y-114021340D01*
X91803960Y-118241340D02*
X91803960Y-117891340D01*
X92153960Y-118241340D02*
X91803960Y-118241340D01*
M02*
