G04 #@! TF.GenerationSoftware,KiCad,Pcbnew,(5.1.4-0-10_14)*
G04 #@! TF.CreationDate,2020-04-27T00:49:30-05:00*
G04 #@! TF.ProjectId,Lifedatalink_v1_revA,4c696665-6461-4746-916c-696e6b5f7631,rev?*
G04 #@! TF.SameCoordinates,Original*
G04 #@! TF.FileFunction,Soldermask,Bot*
G04 #@! TF.FilePolarity,Negative*
%FSLAX46Y46*%
G04 Gerber Fmt 4.6, Leading zero omitted, Abs format (unit mm)*
G04 Created by KiCad (PCBNEW (5.1.4-0-10_14)) date 2020-04-27 00:49:30*
%MOMM*%
%LPD*%
G04 APERTURE LIST*
%ADD10C,0.010000*%
%ADD11C,0.100000*%
G04 APERTURE END LIST*
D10*
G36*
X91998000Y-93857742D02*
G01*
X91998000Y-94208600D01*
X92248737Y-94208600D01*
X92248737Y-93857742D01*
X91998000Y-93857742D01*
G37*
X91998000Y-93857742D02*
X91998000Y-94208600D01*
X92248737Y-94208600D01*
X92248737Y-93857742D01*
X91998000Y-93857742D01*
G36*
X91648000Y-93857548D02*
G01*
X91648000Y-94208600D01*
X91897851Y-94208600D01*
X91897851Y-93857548D01*
X91648000Y-93857548D01*
G37*
X91648000Y-93857548D02*
X91648000Y-94208600D01*
X91897851Y-94208600D01*
X91897851Y-93857548D01*
X91648000Y-93857548D01*
G36*
X91648000Y-94308964D02*
G01*
X91648000Y-94558600D01*
X92249096Y-94558600D01*
X92249096Y-94308964D01*
X91648000Y-94308964D01*
G37*
X91648000Y-94308964D02*
X91648000Y-94558600D01*
X92249096Y-94558600D01*
X92249096Y-94308964D01*
X91648000Y-94308964D01*
D11*
G36*
X101333010Y-131849536D02*
G01*
X102434222Y-132305673D01*
X103425287Y-132967881D01*
X104268119Y-133810713D01*
X104930327Y-134801778D01*
X105386464Y-135902990D01*
X105619000Y-137072027D01*
X105619000Y-138263973D01*
X105386464Y-139433010D01*
X104930327Y-140534222D01*
X104268119Y-141525287D01*
X103425287Y-142368119D01*
X102434222Y-143030327D01*
X101333010Y-143486464D01*
X100163973Y-143719000D01*
X98972027Y-143719000D01*
X97802990Y-143486464D01*
X96701778Y-143030327D01*
X95710713Y-142368119D01*
X94867881Y-141525287D01*
X94205673Y-140534222D01*
X93749536Y-139433010D01*
X93517000Y-138263973D01*
X93517000Y-137072027D01*
X93749536Y-135902990D01*
X94205673Y-134801778D01*
X94867881Y-133810713D01*
X95710713Y-132967881D01*
X96701778Y-132305673D01*
X97802990Y-131849536D01*
X98972027Y-131617000D01*
X100163973Y-131617000D01*
X101333010Y-131849536D01*
X101333010Y-131849536D01*
G37*
G36*
X85796245Y-118166915D02*
G01*
X85968146Y-118238119D01*
X86151305Y-118313986D01*
X86470850Y-118527499D01*
X86742601Y-118799250D01*
X86810138Y-118900327D01*
X86956115Y-119118797D01*
X87103185Y-119473855D01*
X87178160Y-119850782D01*
X87178160Y-120235098D01*
X87103185Y-120612025D01*
X87007785Y-120842340D01*
X86956114Y-120967085D01*
X86742601Y-121286630D01*
X86470850Y-121558381D01*
X86151305Y-121771894D01*
X86151304Y-121771895D01*
X86151303Y-121771895D01*
X85796245Y-121918965D01*
X85419318Y-121993940D01*
X85035002Y-121993940D01*
X84658075Y-121918965D01*
X84303017Y-121771895D01*
X84303016Y-121771895D01*
X84303015Y-121771894D01*
X83983470Y-121558381D01*
X83711719Y-121286630D01*
X83498206Y-120967085D01*
X83446535Y-120842340D01*
X83351135Y-120612025D01*
X83276160Y-120235098D01*
X83276160Y-119850782D01*
X83351135Y-119473855D01*
X83498205Y-119118797D01*
X83644182Y-118900327D01*
X83711719Y-118799250D01*
X83983470Y-118527499D01*
X84303015Y-118313986D01*
X84486174Y-118238119D01*
X84658075Y-118166915D01*
X85035002Y-118091940D01*
X85419318Y-118091940D01*
X85796245Y-118166915D01*
X85796245Y-118166915D01*
G37*
G36*
X101369960Y-121944340D02*
G01*
X100967960Y-121944340D01*
X100967960Y-120842340D01*
X101369960Y-120842340D01*
X101369960Y-121944340D01*
X101369960Y-121944340D01*
G37*
G36*
X98289960Y-121944340D02*
G01*
X97887960Y-121944340D01*
X97887960Y-120842340D01*
X98289960Y-120842340D01*
X98289960Y-121944340D01*
X98289960Y-121944340D01*
G37*
G36*
X91147898Y-120464056D02*
G01*
X91168517Y-120470311D01*
X91187513Y-120480464D01*
X91204168Y-120494132D01*
X91217836Y-120510787D01*
X91227989Y-120529783D01*
X91234244Y-120550402D01*
X91236960Y-120577980D01*
X91236960Y-121036700D01*
X91234244Y-121064278D01*
X91227989Y-121084897D01*
X91217836Y-121103893D01*
X91204168Y-121120548D01*
X91187513Y-121134216D01*
X91168517Y-121144369D01*
X91147898Y-121150624D01*
X91120320Y-121153340D01*
X90611600Y-121153340D01*
X90584022Y-121150624D01*
X90563403Y-121144369D01*
X90544407Y-121134216D01*
X90527752Y-121120548D01*
X90514084Y-121103893D01*
X90503931Y-121084897D01*
X90497676Y-121064278D01*
X90494960Y-121036700D01*
X90494960Y-120577980D01*
X90497676Y-120550402D01*
X90503931Y-120529783D01*
X90514084Y-120510787D01*
X90527752Y-120494132D01*
X90544407Y-120480464D01*
X90563403Y-120470311D01*
X90584022Y-120464056D01*
X90611600Y-120461340D01*
X91120320Y-120461340D01*
X91147898Y-120464056D01*
X91147898Y-120464056D01*
G37*
G36*
X96227898Y-120464056D02*
G01*
X96248517Y-120470311D01*
X96267513Y-120480464D01*
X96284168Y-120494132D01*
X96297836Y-120510787D01*
X96307989Y-120529783D01*
X96314244Y-120550402D01*
X96316960Y-120577980D01*
X96316960Y-121036700D01*
X96314244Y-121064278D01*
X96307989Y-121084897D01*
X96297836Y-121103893D01*
X96284168Y-121120548D01*
X96267513Y-121134216D01*
X96248517Y-121144369D01*
X96227898Y-121150624D01*
X96200320Y-121153340D01*
X95691600Y-121153340D01*
X95664022Y-121150624D01*
X95643403Y-121144369D01*
X95624407Y-121134216D01*
X95607752Y-121120548D01*
X95594084Y-121103893D01*
X95583931Y-121084897D01*
X95577676Y-121064278D01*
X95574960Y-121036700D01*
X95574960Y-120577980D01*
X95577676Y-120550402D01*
X95583931Y-120529783D01*
X95594084Y-120510787D01*
X95607752Y-120494132D01*
X95624407Y-120480464D01*
X95643403Y-120470311D01*
X95664022Y-120464056D01*
X95691600Y-120461340D01*
X96200320Y-120461340D01*
X96227898Y-120464056D01*
X96227898Y-120464056D01*
G37*
G36*
X92417898Y-120464056D02*
G01*
X92438517Y-120470311D01*
X92457513Y-120480464D01*
X92474168Y-120494132D01*
X92487836Y-120510787D01*
X92497989Y-120529783D01*
X92504244Y-120550402D01*
X92506960Y-120577980D01*
X92506960Y-121036700D01*
X92504244Y-121064278D01*
X92497989Y-121084897D01*
X92487836Y-121103893D01*
X92474168Y-121120548D01*
X92457513Y-121134216D01*
X92438517Y-121144369D01*
X92417898Y-121150624D01*
X92390320Y-121153340D01*
X91881600Y-121153340D01*
X91854022Y-121150624D01*
X91833403Y-121144369D01*
X91814407Y-121134216D01*
X91797752Y-121120548D01*
X91784084Y-121103893D01*
X91773931Y-121084897D01*
X91767676Y-121064278D01*
X91764960Y-121036700D01*
X91764960Y-120577980D01*
X91767676Y-120550402D01*
X91773931Y-120529783D01*
X91784084Y-120510787D01*
X91797752Y-120494132D01*
X91814407Y-120480464D01*
X91833403Y-120470311D01*
X91854022Y-120464056D01*
X91881600Y-120461340D01*
X92390320Y-120461340D01*
X92417898Y-120464056D01*
X92417898Y-120464056D01*
G37*
G36*
X93687898Y-120464056D02*
G01*
X93708517Y-120470311D01*
X93727513Y-120480464D01*
X93744168Y-120494132D01*
X93757836Y-120510787D01*
X93767989Y-120529783D01*
X93774244Y-120550402D01*
X93776960Y-120577980D01*
X93776960Y-121036700D01*
X93774244Y-121064278D01*
X93767989Y-121084897D01*
X93757836Y-121103893D01*
X93744168Y-121120548D01*
X93727513Y-121134216D01*
X93708517Y-121144369D01*
X93687898Y-121150624D01*
X93660320Y-121153340D01*
X93151600Y-121153340D01*
X93124022Y-121150624D01*
X93103403Y-121144369D01*
X93084407Y-121134216D01*
X93067752Y-121120548D01*
X93054084Y-121103893D01*
X93043931Y-121084897D01*
X93037676Y-121064278D01*
X93034960Y-121036700D01*
X93034960Y-120577980D01*
X93037676Y-120550402D01*
X93043931Y-120529783D01*
X93054084Y-120510787D01*
X93067752Y-120494132D01*
X93084407Y-120480464D01*
X93103403Y-120470311D01*
X93124022Y-120464056D01*
X93151600Y-120461340D01*
X93660320Y-120461340D01*
X93687898Y-120464056D01*
X93687898Y-120464056D01*
G37*
G36*
X94957898Y-120464056D02*
G01*
X94978517Y-120470311D01*
X94997513Y-120480464D01*
X95014168Y-120494132D01*
X95027836Y-120510787D01*
X95037989Y-120529783D01*
X95044244Y-120550402D01*
X95046960Y-120577980D01*
X95046960Y-121036700D01*
X95044244Y-121064278D01*
X95037989Y-121084897D01*
X95027836Y-121103893D01*
X95014168Y-121120548D01*
X94997513Y-121134216D01*
X94978517Y-121144369D01*
X94957898Y-121150624D01*
X94930320Y-121153340D01*
X94421600Y-121153340D01*
X94394022Y-121150624D01*
X94373403Y-121144369D01*
X94354407Y-121134216D01*
X94337752Y-121120548D01*
X94324084Y-121103893D01*
X94313931Y-121084897D01*
X94307676Y-121064278D01*
X94304960Y-121036700D01*
X94304960Y-120577980D01*
X94307676Y-120550402D01*
X94313931Y-120529783D01*
X94324084Y-120510787D01*
X94337752Y-120494132D01*
X94354407Y-120480464D01*
X94373403Y-120470311D01*
X94394022Y-120464056D01*
X94421600Y-120461340D01*
X94930320Y-120461340D01*
X94957898Y-120464056D01*
X94957898Y-120464056D01*
G37*
G36*
X92417898Y-119494056D02*
G01*
X92438517Y-119500311D01*
X92457513Y-119510464D01*
X92474168Y-119524132D01*
X92487836Y-119540787D01*
X92497989Y-119559783D01*
X92504244Y-119580402D01*
X92506960Y-119607980D01*
X92506960Y-120066700D01*
X92504244Y-120094278D01*
X92497989Y-120114897D01*
X92487836Y-120133893D01*
X92474168Y-120150548D01*
X92457513Y-120164216D01*
X92438517Y-120174369D01*
X92417898Y-120180624D01*
X92390320Y-120183340D01*
X91881600Y-120183340D01*
X91854022Y-120180624D01*
X91833403Y-120174369D01*
X91814407Y-120164216D01*
X91797752Y-120150548D01*
X91784084Y-120133893D01*
X91773931Y-120114897D01*
X91767676Y-120094278D01*
X91764960Y-120066700D01*
X91764960Y-119607980D01*
X91767676Y-119580402D01*
X91773931Y-119559783D01*
X91784084Y-119540787D01*
X91797752Y-119524132D01*
X91814407Y-119510464D01*
X91833403Y-119500311D01*
X91854022Y-119494056D01*
X91881600Y-119491340D01*
X92390320Y-119491340D01*
X92417898Y-119494056D01*
X92417898Y-119494056D01*
G37*
G36*
X96227898Y-119494056D02*
G01*
X96248517Y-119500311D01*
X96267513Y-119510464D01*
X96284168Y-119524132D01*
X96297836Y-119540787D01*
X96307989Y-119559783D01*
X96314244Y-119580402D01*
X96316960Y-119607980D01*
X96316960Y-120066700D01*
X96314244Y-120094278D01*
X96307989Y-120114897D01*
X96297836Y-120133893D01*
X96284168Y-120150548D01*
X96267513Y-120164216D01*
X96248517Y-120174369D01*
X96227898Y-120180624D01*
X96200320Y-120183340D01*
X95691600Y-120183340D01*
X95664022Y-120180624D01*
X95643403Y-120174369D01*
X95624407Y-120164216D01*
X95607752Y-120150548D01*
X95594084Y-120133893D01*
X95583931Y-120114897D01*
X95577676Y-120094278D01*
X95574960Y-120066700D01*
X95574960Y-119607980D01*
X95577676Y-119580402D01*
X95583931Y-119559783D01*
X95594084Y-119540787D01*
X95607752Y-119524132D01*
X95624407Y-119510464D01*
X95643403Y-119500311D01*
X95664022Y-119494056D01*
X95691600Y-119491340D01*
X96200320Y-119491340D01*
X96227898Y-119494056D01*
X96227898Y-119494056D01*
G37*
G36*
X94957898Y-119494056D02*
G01*
X94978517Y-119500311D01*
X94997513Y-119510464D01*
X95014168Y-119524132D01*
X95027836Y-119540787D01*
X95037989Y-119559783D01*
X95044244Y-119580402D01*
X95046960Y-119607980D01*
X95046960Y-120066700D01*
X95044244Y-120094278D01*
X95037989Y-120114897D01*
X95027836Y-120133893D01*
X95014168Y-120150548D01*
X94997513Y-120164216D01*
X94978517Y-120174369D01*
X94957898Y-120180624D01*
X94930320Y-120183340D01*
X94421600Y-120183340D01*
X94394022Y-120180624D01*
X94373403Y-120174369D01*
X94354407Y-120164216D01*
X94337752Y-120150548D01*
X94324084Y-120133893D01*
X94313931Y-120114897D01*
X94307676Y-120094278D01*
X94304960Y-120066700D01*
X94304960Y-119607980D01*
X94307676Y-119580402D01*
X94313931Y-119559783D01*
X94324084Y-119540787D01*
X94337752Y-119524132D01*
X94354407Y-119510464D01*
X94373403Y-119500311D01*
X94394022Y-119494056D01*
X94421600Y-119491340D01*
X94930320Y-119491340D01*
X94957898Y-119494056D01*
X94957898Y-119494056D01*
G37*
G36*
X91147898Y-119494056D02*
G01*
X91168517Y-119500311D01*
X91187513Y-119510464D01*
X91204168Y-119524132D01*
X91217836Y-119540787D01*
X91227989Y-119559783D01*
X91234244Y-119580402D01*
X91236960Y-119607980D01*
X91236960Y-120066700D01*
X91234244Y-120094278D01*
X91227989Y-120114897D01*
X91217836Y-120133893D01*
X91204168Y-120150548D01*
X91187513Y-120164216D01*
X91168517Y-120174369D01*
X91147898Y-120180624D01*
X91120320Y-120183340D01*
X90611600Y-120183340D01*
X90584022Y-120180624D01*
X90563403Y-120174369D01*
X90544407Y-120164216D01*
X90527752Y-120150548D01*
X90514084Y-120133893D01*
X90503931Y-120114897D01*
X90497676Y-120094278D01*
X90494960Y-120066700D01*
X90494960Y-119607980D01*
X90497676Y-119580402D01*
X90503931Y-119559783D01*
X90514084Y-119540787D01*
X90527752Y-119524132D01*
X90544407Y-119510464D01*
X90563403Y-119500311D01*
X90584022Y-119494056D01*
X90611600Y-119491340D01*
X91120320Y-119491340D01*
X91147898Y-119494056D01*
X91147898Y-119494056D01*
G37*
G36*
X93687898Y-119494056D02*
G01*
X93708517Y-119500311D01*
X93727513Y-119510464D01*
X93744168Y-119524132D01*
X93757836Y-119540787D01*
X93767989Y-119559783D01*
X93774244Y-119580402D01*
X93776960Y-119607980D01*
X93776960Y-120066700D01*
X93774244Y-120094278D01*
X93767989Y-120114897D01*
X93757836Y-120133893D01*
X93744168Y-120150548D01*
X93727513Y-120164216D01*
X93708517Y-120174369D01*
X93687898Y-120180624D01*
X93660320Y-120183340D01*
X93151600Y-120183340D01*
X93124022Y-120180624D01*
X93103403Y-120174369D01*
X93084407Y-120164216D01*
X93067752Y-120150548D01*
X93054084Y-120133893D01*
X93043931Y-120114897D01*
X93037676Y-120094278D01*
X93034960Y-120066700D01*
X93034960Y-119607980D01*
X93037676Y-119580402D01*
X93043931Y-119559783D01*
X93054084Y-119540787D01*
X93067752Y-119524132D01*
X93084407Y-119510464D01*
X93103403Y-119500311D01*
X93124022Y-119494056D01*
X93151600Y-119491340D01*
X93660320Y-119491340D01*
X93687898Y-119494056D01*
X93687898Y-119494056D01*
G37*
G36*
X69583010Y-107719536D02*
G01*
X70684222Y-108175673D01*
X71675287Y-108837881D01*
X72518119Y-109680713D01*
X73180327Y-110671778D01*
X73636464Y-111772990D01*
X73869000Y-112942027D01*
X73869000Y-114133973D01*
X73636464Y-115303010D01*
X73180327Y-116404222D01*
X72518119Y-117395287D01*
X71675287Y-118238119D01*
X70684222Y-118900327D01*
X69583010Y-119356464D01*
X68413973Y-119589000D01*
X67222027Y-119589000D01*
X66052990Y-119356464D01*
X64951778Y-118900327D01*
X63960713Y-118238119D01*
X63117881Y-117395287D01*
X62455673Y-116404222D01*
X61999536Y-115303010D01*
X61767000Y-114133973D01*
X61767000Y-112942027D01*
X61999536Y-111772990D01*
X62455673Y-110671778D01*
X63117881Y-109680713D01*
X63960713Y-108837881D01*
X64951778Y-108175673D01*
X66052990Y-107719536D01*
X67222027Y-107487000D01*
X68413973Y-107487000D01*
X69583010Y-107719536D01*
X69583010Y-107719536D01*
G37*
G36*
X118478010Y-107719536D02*
G01*
X119579222Y-108175673D01*
X120570287Y-108837881D01*
X121413119Y-109680713D01*
X122075327Y-110671778D01*
X122531464Y-111772990D01*
X122764000Y-112942027D01*
X122764000Y-114133973D01*
X122531464Y-115303010D01*
X122075327Y-116404222D01*
X121413119Y-117395287D01*
X120570287Y-118238119D01*
X119579222Y-118900327D01*
X118478010Y-119356464D01*
X117308973Y-119589000D01*
X116117027Y-119589000D01*
X114947990Y-119356464D01*
X113846778Y-118900327D01*
X112855713Y-118238119D01*
X112012881Y-117395287D01*
X111350673Y-116404222D01*
X110894536Y-115303010D01*
X110662000Y-114133973D01*
X110662000Y-112942027D01*
X110894536Y-111772990D01*
X111350673Y-110671778D01*
X112012881Y-109680713D01*
X112855713Y-108837881D01*
X113846778Y-108175673D01*
X114947990Y-107719536D01*
X116117027Y-107487000D01*
X117308973Y-107487000D01*
X118478010Y-107719536D01*
X118478010Y-107719536D01*
G37*
G36*
X100579960Y-119144340D02*
G01*
X98677960Y-119144340D01*
X98677960Y-118342340D01*
X100579960Y-118342340D01*
X100579960Y-119144340D01*
X100579960Y-119144340D01*
G37*
G36*
X97247200Y-116910596D02*
G01*
X97267819Y-116916851D01*
X97286815Y-116927004D01*
X97303470Y-116940672D01*
X97317138Y-116957327D01*
X97327291Y-116976323D01*
X97333546Y-116996942D01*
X97336262Y-117024520D01*
X97336262Y-117483240D01*
X97333546Y-117510818D01*
X97327291Y-117531437D01*
X97317138Y-117550433D01*
X97303470Y-117567088D01*
X97286815Y-117580756D01*
X97267819Y-117590909D01*
X97247200Y-117597164D01*
X97219622Y-117599880D01*
X96710902Y-117599880D01*
X96683324Y-117597164D01*
X96662705Y-117590909D01*
X96643709Y-117580756D01*
X96627054Y-117567088D01*
X96613386Y-117550433D01*
X96603233Y-117531437D01*
X96596978Y-117510818D01*
X96594262Y-117483240D01*
X96594262Y-117024520D01*
X96596978Y-116996942D01*
X96603233Y-116976323D01*
X96613386Y-116957327D01*
X96627054Y-116940672D01*
X96643709Y-116927004D01*
X96662705Y-116916851D01*
X96683324Y-116910596D01*
X96710902Y-116907880D01*
X97219622Y-116907880D01*
X97247200Y-116910596D01*
X97247200Y-116910596D01*
G37*
G36*
X98507802Y-116910596D02*
G01*
X98528421Y-116916851D01*
X98547417Y-116927004D01*
X98564072Y-116940672D01*
X98577740Y-116957327D01*
X98587893Y-116976323D01*
X98594148Y-116996942D01*
X98596864Y-117024520D01*
X98596864Y-117483240D01*
X98594148Y-117510818D01*
X98587893Y-117531437D01*
X98577740Y-117550433D01*
X98564072Y-117567088D01*
X98547417Y-117580756D01*
X98528421Y-117590909D01*
X98507802Y-117597164D01*
X98480224Y-117599880D01*
X97971504Y-117599880D01*
X97943926Y-117597164D01*
X97923307Y-117590909D01*
X97904311Y-117580756D01*
X97887656Y-117567088D01*
X97873988Y-117550433D01*
X97863835Y-117531437D01*
X97857580Y-117510818D01*
X97854864Y-117483240D01*
X97854864Y-117024520D01*
X97857580Y-116996942D01*
X97863835Y-116976323D01*
X97873988Y-116957327D01*
X97887656Y-116940672D01*
X97904311Y-116927004D01*
X97923307Y-116916851D01*
X97943926Y-116910596D01*
X97971504Y-116907880D01*
X98480224Y-116907880D01*
X98507802Y-116910596D01*
X98507802Y-116910596D01*
G37*
G36*
X94068898Y-116908056D02*
G01*
X94089517Y-116914311D01*
X94108513Y-116924464D01*
X94125168Y-116938132D01*
X94138836Y-116954787D01*
X94148989Y-116973783D01*
X94155244Y-116994402D01*
X94157960Y-117021980D01*
X94157960Y-117480700D01*
X94155244Y-117508278D01*
X94148989Y-117528897D01*
X94138836Y-117547893D01*
X94125168Y-117564548D01*
X94108513Y-117578216D01*
X94089517Y-117588369D01*
X94068898Y-117594624D01*
X94041320Y-117597340D01*
X93532600Y-117597340D01*
X93505022Y-117594624D01*
X93484403Y-117588369D01*
X93465407Y-117578216D01*
X93448752Y-117564548D01*
X93435084Y-117547893D01*
X93424931Y-117528897D01*
X93418676Y-117508278D01*
X93415960Y-117480700D01*
X93415960Y-117021980D01*
X93418676Y-116994402D01*
X93424931Y-116973783D01*
X93435084Y-116954787D01*
X93448752Y-116938132D01*
X93465407Y-116924464D01*
X93484403Y-116914311D01*
X93505022Y-116908056D01*
X93532600Y-116905340D01*
X94041320Y-116905340D01*
X94068898Y-116908056D01*
X94068898Y-116908056D01*
G37*
G36*
X95338898Y-116908056D02*
G01*
X95359517Y-116914311D01*
X95378513Y-116924464D01*
X95395168Y-116938132D01*
X95408836Y-116954787D01*
X95418989Y-116973783D01*
X95425244Y-116994402D01*
X95427960Y-117021980D01*
X95427960Y-117480700D01*
X95425244Y-117508278D01*
X95418989Y-117528897D01*
X95408836Y-117547893D01*
X95395168Y-117564548D01*
X95378513Y-117578216D01*
X95359517Y-117588369D01*
X95338898Y-117594624D01*
X95311320Y-117597340D01*
X94802600Y-117597340D01*
X94775022Y-117594624D01*
X94754403Y-117588369D01*
X94735407Y-117578216D01*
X94718752Y-117564548D01*
X94705084Y-117547893D01*
X94694931Y-117528897D01*
X94688676Y-117508278D01*
X94685960Y-117480700D01*
X94685960Y-117021980D01*
X94688676Y-116994402D01*
X94694931Y-116973783D01*
X94705084Y-116954787D01*
X94718752Y-116938132D01*
X94735407Y-116924464D01*
X94754403Y-116914311D01*
X94775022Y-116908056D01*
X94802600Y-116905340D01*
X95311320Y-116905340D01*
X95338898Y-116908056D01*
X95338898Y-116908056D01*
G37*
G36*
X91395960Y-116659340D02*
G01*
X84493960Y-116659340D01*
X84493960Y-115857340D01*
X91395960Y-115857340D01*
X91395960Y-116659340D01*
X91395960Y-116659340D01*
G37*
G36*
X97247200Y-115940596D02*
G01*
X97267819Y-115946851D01*
X97286815Y-115957004D01*
X97303470Y-115970672D01*
X97317138Y-115987327D01*
X97327291Y-116006323D01*
X97333546Y-116026942D01*
X97336262Y-116054520D01*
X97336262Y-116513240D01*
X97333546Y-116540818D01*
X97327291Y-116561437D01*
X97317138Y-116580433D01*
X97303470Y-116597088D01*
X97286815Y-116610756D01*
X97267819Y-116620909D01*
X97247200Y-116627164D01*
X97219622Y-116629880D01*
X96710902Y-116629880D01*
X96683324Y-116627164D01*
X96662705Y-116620909D01*
X96643709Y-116610756D01*
X96627054Y-116597088D01*
X96613386Y-116580433D01*
X96603233Y-116561437D01*
X96596978Y-116540818D01*
X96594262Y-116513240D01*
X96594262Y-116054520D01*
X96596978Y-116026942D01*
X96603233Y-116006323D01*
X96613386Y-115987327D01*
X96627054Y-115970672D01*
X96643709Y-115957004D01*
X96662705Y-115946851D01*
X96683324Y-115940596D01*
X96710902Y-115937880D01*
X97219622Y-115937880D01*
X97247200Y-115940596D01*
X97247200Y-115940596D01*
G37*
G36*
X98507802Y-115940596D02*
G01*
X98528421Y-115946851D01*
X98547417Y-115957004D01*
X98564072Y-115970672D01*
X98577740Y-115987327D01*
X98587893Y-116006323D01*
X98594148Y-116026942D01*
X98596864Y-116054520D01*
X98596864Y-116513240D01*
X98594148Y-116540818D01*
X98587893Y-116561437D01*
X98577740Y-116580433D01*
X98564072Y-116597088D01*
X98547417Y-116610756D01*
X98528421Y-116620909D01*
X98507802Y-116627164D01*
X98480224Y-116629880D01*
X97971504Y-116629880D01*
X97943926Y-116627164D01*
X97923307Y-116620909D01*
X97904311Y-116610756D01*
X97887656Y-116597088D01*
X97873988Y-116580433D01*
X97863835Y-116561437D01*
X97857580Y-116540818D01*
X97854864Y-116513240D01*
X97854864Y-116054520D01*
X97857580Y-116026942D01*
X97863835Y-116006323D01*
X97873988Y-115987327D01*
X97887656Y-115970672D01*
X97904311Y-115957004D01*
X97923307Y-115946851D01*
X97943926Y-115940596D01*
X97971504Y-115937880D01*
X98480224Y-115937880D01*
X98507802Y-115940596D01*
X98507802Y-115940596D01*
G37*
G36*
X94068898Y-115938056D02*
G01*
X94089517Y-115944311D01*
X94108513Y-115954464D01*
X94125168Y-115968132D01*
X94138836Y-115984787D01*
X94148989Y-116003783D01*
X94155244Y-116024402D01*
X94157960Y-116051980D01*
X94157960Y-116510700D01*
X94155244Y-116538278D01*
X94148989Y-116558897D01*
X94138836Y-116577893D01*
X94125168Y-116594548D01*
X94108513Y-116608216D01*
X94089517Y-116618369D01*
X94068898Y-116624624D01*
X94041320Y-116627340D01*
X93532600Y-116627340D01*
X93505022Y-116624624D01*
X93484403Y-116618369D01*
X93465407Y-116608216D01*
X93448752Y-116594548D01*
X93435084Y-116577893D01*
X93424931Y-116558897D01*
X93418676Y-116538278D01*
X93415960Y-116510700D01*
X93415960Y-116051980D01*
X93418676Y-116024402D01*
X93424931Y-116003783D01*
X93435084Y-115984787D01*
X93448752Y-115968132D01*
X93465407Y-115954464D01*
X93484403Y-115944311D01*
X93505022Y-115938056D01*
X93532600Y-115935340D01*
X94041320Y-115935340D01*
X94068898Y-115938056D01*
X94068898Y-115938056D01*
G37*
G36*
X95338898Y-115938056D02*
G01*
X95359517Y-115944311D01*
X95378513Y-115954464D01*
X95395168Y-115968132D01*
X95408836Y-115984787D01*
X95418989Y-116003783D01*
X95425244Y-116024402D01*
X95427960Y-116051980D01*
X95427960Y-116510700D01*
X95425244Y-116538278D01*
X95418989Y-116558897D01*
X95408836Y-116577893D01*
X95395168Y-116594548D01*
X95378513Y-116608216D01*
X95359517Y-116618369D01*
X95338898Y-116624624D01*
X95311320Y-116627340D01*
X94802600Y-116627340D01*
X94775022Y-116624624D01*
X94754403Y-116618369D01*
X94735407Y-116608216D01*
X94718752Y-116594548D01*
X94705084Y-116577893D01*
X94694931Y-116558897D01*
X94688676Y-116538278D01*
X94685960Y-116510700D01*
X94685960Y-116051980D01*
X94688676Y-116024402D01*
X94694931Y-116003783D01*
X94705084Y-115984787D01*
X94718752Y-115968132D01*
X94735407Y-115954464D01*
X94754403Y-115944311D01*
X94775022Y-115938056D01*
X94802600Y-115935340D01*
X95311320Y-115935340D01*
X95338898Y-115938056D01*
X95338898Y-115938056D01*
G37*
G36*
X98513898Y-114749056D02*
G01*
X98534517Y-114755311D01*
X98553513Y-114765464D01*
X98570168Y-114779132D01*
X98583836Y-114795787D01*
X98593989Y-114814783D01*
X98600244Y-114835402D01*
X98602960Y-114862980D01*
X98602960Y-115321700D01*
X98600244Y-115349278D01*
X98593989Y-115369897D01*
X98583836Y-115388893D01*
X98570168Y-115405548D01*
X98553513Y-115419216D01*
X98534517Y-115429369D01*
X98513898Y-115435624D01*
X98486320Y-115438340D01*
X97977600Y-115438340D01*
X97950022Y-115435624D01*
X97929403Y-115429369D01*
X97910407Y-115419216D01*
X97893752Y-115405548D01*
X97880084Y-115388893D01*
X97869931Y-115369897D01*
X97863676Y-115349278D01*
X97860960Y-115321700D01*
X97860960Y-114862980D01*
X97863676Y-114835402D01*
X97869931Y-114814783D01*
X97880084Y-114795787D01*
X97893752Y-114779132D01*
X97910407Y-114765464D01*
X97929403Y-114755311D01*
X97950022Y-114749056D01*
X97977600Y-114746340D01*
X98486320Y-114746340D01*
X98513898Y-114749056D01*
X98513898Y-114749056D01*
G37*
G36*
X97243898Y-114749056D02*
G01*
X97264517Y-114755311D01*
X97283513Y-114765464D01*
X97300168Y-114779132D01*
X97313836Y-114795787D01*
X97323989Y-114814783D01*
X97330244Y-114835402D01*
X97332960Y-114862980D01*
X97332960Y-115321700D01*
X97330244Y-115349278D01*
X97323989Y-115369897D01*
X97313836Y-115388893D01*
X97300168Y-115405548D01*
X97283513Y-115419216D01*
X97264517Y-115429369D01*
X97243898Y-115435624D01*
X97216320Y-115438340D01*
X96707600Y-115438340D01*
X96680022Y-115435624D01*
X96659403Y-115429369D01*
X96640407Y-115419216D01*
X96623752Y-115405548D01*
X96610084Y-115388893D01*
X96599931Y-115369897D01*
X96593676Y-115349278D01*
X96590960Y-115321700D01*
X96590960Y-114862980D01*
X96593676Y-114835402D01*
X96599931Y-114814783D01*
X96610084Y-114795787D01*
X96623752Y-114779132D01*
X96640407Y-114765464D01*
X96659403Y-114755311D01*
X96680022Y-114749056D01*
X96707600Y-114746340D01*
X97216320Y-114746340D01*
X97243898Y-114749056D01*
X97243898Y-114749056D01*
G37*
G36*
X95338898Y-114749056D02*
G01*
X95359517Y-114755311D01*
X95378513Y-114765464D01*
X95395168Y-114779132D01*
X95408836Y-114795787D01*
X95418989Y-114814783D01*
X95425244Y-114835402D01*
X95427960Y-114862980D01*
X95427960Y-115321700D01*
X95425244Y-115349278D01*
X95418989Y-115369897D01*
X95408836Y-115388893D01*
X95395168Y-115405548D01*
X95378513Y-115419216D01*
X95359517Y-115429369D01*
X95338898Y-115435624D01*
X95311320Y-115438340D01*
X94802600Y-115438340D01*
X94775022Y-115435624D01*
X94754403Y-115429369D01*
X94735407Y-115419216D01*
X94718752Y-115405548D01*
X94705084Y-115388893D01*
X94694931Y-115369897D01*
X94688676Y-115349278D01*
X94685960Y-115321700D01*
X94685960Y-114862980D01*
X94688676Y-114835402D01*
X94694931Y-114814783D01*
X94705084Y-114795787D01*
X94718752Y-114779132D01*
X94735407Y-114765464D01*
X94754403Y-114755311D01*
X94775022Y-114749056D01*
X94802600Y-114746340D01*
X95311320Y-114746340D01*
X95338898Y-114749056D01*
X95338898Y-114749056D01*
G37*
G36*
X94068898Y-114749056D02*
G01*
X94089517Y-114755311D01*
X94108513Y-114765464D01*
X94125168Y-114779132D01*
X94138836Y-114795787D01*
X94148989Y-114814783D01*
X94155244Y-114835402D01*
X94157960Y-114862980D01*
X94157960Y-115321700D01*
X94155244Y-115349278D01*
X94148989Y-115369897D01*
X94138836Y-115388893D01*
X94125168Y-115405548D01*
X94108513Y-115419216D01*
X94089517Y-115429369D01*
X94068898Y-115435624D01*
X94041320Y-115438340D01*
X93532600Y-115438340D01*
X93505022Y-115435624D01*
X93484403Y-115429369D01*
X93465407Y-115419216D01*
X93448752Y-115405548D01*
X93435084Y-115388893D01*
X93424931Y-115369897D01*
X93418676Y-115349278D01*
X93415960Y-115321700D01*
X93415960Y-114862980D01*
X93418676Y-114835402D01*
X93424931Y-114814783D01*
X93435084Y-114795787D01*
X93448752Y-114779132D01*
X93465407Y-114765464D01*
X93484403Y-114755311D01*
X93505022Y-114749056D01*
X93532600Y-114746340D01*
X94041320Y-114746340D01*
X94068898Y-114749056D01*
X94068898Y-114749056D01*
G37*
G36*
X94068898Y-113779056D02*
G01*
X94089517Y-113785311D01*
X94108513Y-113795464D01*
X94125168Y-113809132D01*
X94138836Y-113825787D01*
X94148989Y-113844783D01*
X94155244Y-113865402D01*
X94157960Y-113892980D01*
X94157960Y-114351700D01*
X94155244Y-114379278D01*
X94148989Y-114399897D01*
X94138836Y-114418893D01*
X94125168Y-114435548D01*
X94108513Y-114449216D01*
X94089517Y-114459369D01*
X94068898Y-114465624D01*
X94041320Y-114468340D01*
X93532600Y-114468340D01*
X93505022Y-114465624D01*
X93484403Y-114459369D01*
X93465407Y-114449216D01*
X93448752Y-114435548D01*
X93435084Y-114418893D01*
X93424931Y-114399897D01*
X93418676Y-114379278D01*
X93415960Y-114351700D01*
X93415960Y-113892980D01*
X93418676Y-113865402D01*
X93424931Y-113844783D01*
X93435084Y-113825787D01*
X93448752Y-113809132D01*
X93465407Y-113795464D01*
X93484403Y-113785311D01*
X93505022Y-113779056D01*
X93532600Y-113776340D01*
X94041320Y-113776340D01*
X94068898Y-113779056D01*
X94068898Y-113779056D01*
G37*
G36*
X95338898Y-113779056D02*
G01*
X95359517Y-113785311D01*
X95378513Y-113795464D01*
X95395168Y-113809132D01*
X95408836Y-113825787D01*
X95418989Y-113844783D01*
X95425244Y-113865402D01*
X95427960Y-113892980D01*
X95427960Y-114351700D01*
X95425244Y-114379278D01*
X95418989Y-114399897D01*
X95408836Y-114418893D01*
X95395168Y-114435548D01*
X95378513Y-114449216D01*
X95359517Y-114459369D01*
X95338898Y-114465624D01*
X95311320Y-114468340D01*
X94802600Y-114468340D01*
X94775022Y-114465624D01*
X94754403Y-114459369D01*
X94735407Y-114449216D01*
X94718752Y-114435548D01*
X94705084Y-114418893D01*
X94694931Y-114399897D01*
X94688676Y-114379278D01*
X94685960Y-114351700D01*
X94685960Y-113892980D01*
X94688676Y-113865402D01*
X94694931Y-113844783D01*
X94705084Y-113825787D01*
X94718752Y-113809132D01*
X94735407Y-113795464D01*
X94754403Y-113785311D01*
X94775022Y-113779056D01*
X94802600Y-113776340D01*
X95311320Y-113776340D01*
X95338898Y-113779056D01*
X95338898Y-113779056D01*
G37*
G36*
X97243898Y-113779056D02*
G01*
X97264517Y-113785311D01*
X97283513Y-113795464D01*
X97300168Y-113809132D01*
X97313836Y-113825787D01*
X97323989Y-113844783D01*
X97330244Y-113865402D01*
X97332960Y-113892980D01*
X97332960Y-114351700D01*
X97330244Y-114379278D01*
X97323989Y-114399897D01*
X97313836Y-114418893D01*
X97300168Y-114435548D01*
X97283513Y-114449216D01*
X97264517Y-114459369D01*
X97243898Y-114465624D01*
X97216320Y-114468340D01*
X96707600Y-114468340D01*
X96680022Y-114465624D01*
X96659403Y-114459369D01*
X96640407Y-114449216D01*
X96623752Y-114435548D01*
X96610084Y-114418893D01*
X96599931Y-114399897D01*
X96593676Y-114379278D01*
X96590960Y-114351700D01*
X96590960Y-113892980D01*
X96593676Y-113865402D01*
X96599931Y-113844783D01*
X96610084Y-113825787D01*
X96623752Y-113809132D01*
X96640407Y-113795464D01*
X96659403Y-113785311D01*
X96680022Y-113779056D01*
X96707600Y-113776340D01*
X97216320Y-113776340D01*
X97243898Y-113779056D01*
X97243898Y-113779056D01*
G37*
G36*
X98513898Y-113779056D02*
G01*
X98534517Y-113785311D01*
X98553513Y-113795464D01*
X98570168Y-113809132D01*
X98583836Y-113825787D01*
X98593989Y-113844783D01*
X98600244Y-113865402D01*
X98602960Y-113892980D01*
X98602960Y-114351700D01*
X98600244Y-114379278D01*
X98593989Y-114399897D01*
X98583836Y-114418893D01*
X98570168Y-114435548D01*
X98553513Y-114449216D01*
X98534517Y-114459369D01*
X98513898Y-114465624D01*
X98486320Y-114468340D01*
X97977600Y-114468340D01*
X97950022Y-114465624D01*
X97929403Y-114459369D01*
X97910407Y-114449216D01*
X97893752Y-114435548D01*
X97880084Y-114418893D01*
X97869931Y-114399897D01*
X97863676Y-114379278D01*
X97860960Y-114351700D01*
X97860960Y-113892980D01*
X97863676Y-113865402D01*
X97869931Y-113844783D01*
X97880084Y-113825787D01*
X97893752Y-113809132D01*
X97910407Y-113795464D01*
X97929403Y-113785311D01*
X97950022Y-113779056D01*
X97977600Y-113776340D01*
X98486320Y-113776340D01*
X98513898Y-113779056D01*
X98513898Y-113779056D01*
G37*
G36*
X84105960Y-114159340D02*
G01*
X83703960Y-114159340D01*
X83703960Y-113057340D01*
X84105960Y-113057340D01*
X84105960Y-114159340D01*
X84105960Y-114159340D01*
G37*
G36*
X92185960Y-114159340D02*
G01*
X91783960Y-114159340D01*
X91783960Y-113057340D01*
X92185960Y-113057340D01*
X92185960Y-114159340D01*
X92185960Y-114159340D01*
G37*
G36*
X97368898Y-112715056D02*
G01*
X97389517Y-112721311D01*
X97408513Y-112731464D01*
X97425168Y-112745132D01*
X97438836Y-112761787D01*
X97448989Y-112780783D01*
X97455244Y-112801402D01*
X97457960Y-112828980D01*
X97457960Y-113337700D01*
X97455244Y-113365278D01*
X97448989Y-113385897D01*
X97438836Y-113404893D01*
X97425168Y-113421548D01*
X97408513Y-113435216D01*
X97389517Y-113445369D01*
X97368898Y-113451624D01*
X97341320Y-113454340D01*
X96882600Y-113454340D01*
X96855022Y-113451624D01*
X96834403Y-113445369D01*
X96815407Y-113435216D01*
X96798752Y-113421548D01*
X96785084Y-113404893D01*
X96774931Y-113385897D01*
X96768676Y-113365278D01*
X96765960Y-113337700D01*
X96765960Y-112828980D01*
X96768676Y-112801402D01*
X96774931Y-112780783D01*
X96785084Y-112761787D01*
X96798752Y-112745132D01*
X96815407Y-112731464D01*
X96834403Y-112721311D01*
X96855022Y-112715056D01*
X96882600Y-112712340D01*
X97341320Y-112712340D01*
X97368898Y-112715056D01*
X97368898Y-112715056D01*
G37*
G36*
X98338898Y-112715056D02*
G01*
X98359517Y-112721311D01*
X98378513Y-112731464D01*
X98395168Y-112745132D01*
X98408836Y-112761787D01*
X98418989Y-112780783D01*
X98425244Y-112801402D01*
X98427960Y-112828980D01*
X98427960Y-113337700D01*
X98425244Y-113365278D01*
X98418989Y-113385897D01*
X98408836Y-113404893D01*
X98395168Y-113421548D01*
X98378513Y-113435216D01*
X98359517Y-113445369D01*
X98338898Y-113451624D01*
X98311320Y-113454340D01*
X97852600Y-113454340D01*
X97825022Y-113451624D01*
X97804403Y-113445369D01*
X97785407Y-113435216D01*
X97768752Y-113421548D01*
X97755084Y-113404893D01*
X97744931Y-113385897D01*
X97738676Y-113365278D01*
X97735960Y-113337700D01*
X97735960Y-112828980D01*
X97738676Y-112801402D01*
X97744931Y-112780783D01*
X97755084Y-112761787D01*
X97768752Y-112745132D01*
X97785407Y-112731464D01*
X97804403Y-112721311D01*
X97825022Y-112715056D01*
X97852600Y-112712340D01*
X98311320Y-112712340D01*
X98338898Y-112715056D01*
X98338898Y-112715056D01*
G37*
G36*
X108814912Y-110764763D02*
G01*
X108853770Y-110780859D01*
X108888738Y-110804224D01*
X108918476Y-110833962D01*
X108941841Y-110868930D01*
X108957937Y-110907788D01*
X108966140Y-110949030D01*
X108966140Y-110991090D01*
X108957937Y-111032332D01*
X108941841Y-111071190D01*
X108918476Y-111106158D01*
X108888738Y-111135896D01*
X108853770Y-111159261D01*
X108814912Y-111175357D01*
X108773670Y-111183560D01*
X108731610Y-111183560D01*
X108690368Y-111175357D01*
X108651510Y-111159261D01*
X108616542Y-111135896D01*
X108586804Y-111106158D01*
X108563439Y-111071190D01*
X108547343Y-111032332D01*
X108539140Y-110991090D01*
X108539140Y-110949030D01*
X108547343Y-110907788D01*
X108563439Y-110868930D01*
X108586804Y-110833962D01*
X108616542Y-110804224D01*
X108651510Y-110780859D01*
X108690368Y-110764763D01*
X108731610Y-110756560D01*
X108773670Y-110756560D01*
X108814912Y-110764763D01*
X108814912Y-110764763D01*
G37*
G36*
X75909212Y-110749523D02*
G01*
X75948070Y-110765619D01*
X75983038Y-110788984D01*
X76012776Y-110818722D01*
X76036141Y-110853690D01*
X76052237Y-110892548D01*
X76060440Y-110933790D01*
X76060440Y-110975850D01*
X76052237Y-111017092D01*
X76036141Y-111055950D01*
X76012776Y-111090918D01*
X75983038Y-111120656D01*
X75948070Y-111144021D01*
X75909212Y-111160117D01*
X75867970Y-111168320D01*
X75825910Y-111168320D01*
X75784668Y-111160117D01*
X75745810Y-111144021D01*
X75710842Y-111120656D01*
X75681104Y-111090918D01*
X75657739Y-111055950D01*
X75641643Y-111017092D01*
X75633440Y-110975850D01*
X75633440Y-110933790D01*
X75641643Y-110892548D01*
X75657739Y-110853690D01*
X75681104Y-110818722D01*
X75710842Y-110788984D01*
X75745810Y-110765619D01*
X75784668Y-110749523D01*
X75825910Y-110741320D01*
X75867970Y-110741320D01*
X75909212Y-110749523D01*
X75909212Y-110749523D01*
G37*
G36*
X97182000Y-108997000D02*
G01*
X94080000Y-108997000D01*
X94080000Y-106395000D01*
X97182000Y-106395000D01*
X97182000Y-108997000D01*
X97182000Y-108997000D01*
G37*
G36*
X98794602Y-95413664D02*
G01*
X98831697Y-95424917D01*
X98865875Y-95443185D01*
X98895841Y-95467779D01*
X98920435Y-95497745D01*
X98938703Y-95531923D01*
X98949956Y-95569018D01*
X98954360Y-95613734D01*
X98954360Y-96506786D01*
X98949956Y-96551502D01*
X98938703Y-96588597D01*
X98920435Y-96622775D01*
X98895841Y-96652741D01*
X98865875Y-96677335D01*
X98831697Y-96695603D01*
X98794602Y-96706856D01*
X98749886Y-96711260D01*
X97256834Y-96711260D01*
X97212118Y-96706856D01*
X97175023Y-96695603D01*
X97140845Y-96677335D01*
X97110879Y-96652741D01*
X97086285Y-96622775D01*
X97068017Y-96588597D01*
X97056764Y-96551502D01*
X97052360Y-96506786D01*
X97052360Y-95613734D01*
X97056764Y-95569018D01*
X97068017Y-95531923D01*
X97086285Y-95497745D01*
X97110879Y-95467779D01*
X97140845Y-95443185D01*
X97175023Y-95424917D01*
X97212118Y-95413664D01*
X97256834Y-95409260D01*
X98749886Y-95409260D01*
X98794602Y-95413664D01*
X98794602Y-95413664D01*
G37*
G36*
X88625938Y-95770716D02*
G01*
X88646557Y-95776971D01*
X88665553Y-95787124D01*
X88682208Y-95800792D01*
X88695876Y-95817447D01*
X88706029Y-95836443D01*
X88712284Y-95857062D01*
X88715000Y-95884640D01*
X88715000Y-96393360D01*
X88712284Y-96420938D01*
X88706029Y-96441557D01*
X88695876Y-96460553D01*
X88682208Y-96477208D01*
X88665553Y-96490876D01*
X88646557Y-96501029D01*
X88625938Y-96507284D01*
X88598360Y-96510000D01*
X88139640Y-96510000D01*
X88112062Y-96507284D01*
X88091443Y-96501029D01*
X88072447Y-96490876D01*
X88055792Y-96477208D01*
X88042124Y-96460553D01*
X88031971Y-96441557D01*
X88025716Y-96420938D01*
X88023000Y-96393360D01*
X88023000Y-95884640D01*
X88025716Y-95857062D01*
X88031971Y-95836443D01*
X88042124Y-95817447D01*
X88055792Y-95800792D01*
X88072447Y-95787124D01*
X88091443Y-95776971D01*
X88112062Y-95770716D01*
X88139640Y-95768000D01*
X88598360Y-95768000D01*
X88625938Y-95770716D01*
X88625938Y-95770716D01*
G37*
G36*
X87655938Y-95770716D02*
G01*
X87676557Y-95776971D01*
X87695553Y-95787124D01*
X87712208Y-95800792D01*
X87725876Y-95817447D01*
X87736029Y-95836443D01*
X87742284Y-95857062D01*
X87745000Y-95884640D01*
X87745000Y-96393360D01*
X87742284Y-96420938D01*
X87736029Y-96441557D01*
X87725876Y-96460553D01*
X87712208Y-96477208D01*
X87695553Y-96490876D01*
X87676557Y-96501029D01*
X87655938Y-96507284D01*
X87628360Y-96510000D01*
X87169640Y-96510000D01*
X87142062Y-96507284D01*
X87121443Y-96501029D01*
X87102447Y-96490876D01*
X87085792Y-96477208D01*
X87072124Y-96460553D01*
X87061971Y-96441557D01*
X87055716Y-96420938D01*
X87053000Y-96393360D01*
X87053000Y-95884640D01*
X87055716Y-95857062D01*
X87061971Y-95836443D01*
X87072124Y-95817447D01*
X87085792Y-95800792D01*
X87102447Y-95787124D01*
X87121443Y-95776971D01*
X87142062Y-95770716D01*
X87169640Y-95768000D01*
X87628360Y-95768000D01*
X87655938Y-95770716D01*
X87655938Y-95770716D01*
G37*
G36*
X77195800Y-95991200D02*
G01*
X76443800Y-95991200D01*
X76443800Y-94829200D01*
X77195800Y-94829200D01*
X77195800Y-95991200D01*
X77195800Y-95991200D01*
G37*
G36*
X71607800Y-95991200D02*
G01*
X70855800Y-95991200D01*
X70855800Y-94829200D01*
X71607800Y-94829200D01*
X71607800Y-95991200D01*
X71607800Y-95991200D01*
G37*
G36*
X69707800Y-95991200D02*
G01*
X68955800Y-95991200D01*
X68955800Y-94829200D01*
X69707800Y-94829200D01*
X69707800Y-95991200D01*
X69707800Y-95991200D01*
G37*
G36*
X75295800Y-95991200D02*
G01*
X74543800Y-95991200D01*
X74543800Y-94829200D01*
X75295800Y-94829200D01*
X75295800Y-95991200D01*
X75295800Y-95991200D01*
G37*
G36*
X84185800Y-95991200D02*
G01*
X83433800Y-95991200D01*
X83433800Y-94829200D01*
X84185800Y-94829200D01*
X84185800Y-95991200D01*
X84185800Y-95991200D01*
G37*
G36*
X86085800Y-95991200D02*
G01*
X85333800Y-95991200D01*
X85333800Y-94829200D01*
X86085800Y-94829200D01*
X86085800Y-95991200D01*
X86085800Y-95991200D01*
G37*
G36*
X72847738Y-95211916D02*
G01*
X72868357Y-95218171D01*
X72887353Y-95228324D01*
X72904008Y-95241992D01*
X72917676Y-95258647D01*
X72927829Y-95277643D01*
X72934084Y-95298262D01*
X72936800Y-95325840D01*
X72936800Y-95834560D01*
X72934084Y-95862138D01*
X72927829Y-95882757D01*
X72917676Y-95901753D01*
X72904008Y-95918408D01*
X72887353Y-95932076D01*
X72868357Y-95942229D01*
X72847738Y-95948484D01*
X72820160Y-95951200D01*
X72361440Y-95951200D01*
X72333862Y-95948484D01*
X72313243Y-95942229D01*
X72294247Y-95932076D01*
X72277592Y-95918408D01*
X72263924Y-95901753D01*
X72253771Y-95882757D01*
X72247516Y-95862138D01*
X72244800Y-95834560D01*
X72244800Y-95325840D01*
X72247516Y-95298262D01*
X72253771Y-95277643D01*
X72263924Y-95258647D01*
X72277592Y-95241992D01*
X72294247Y-95228324D01*
X72313243Y-95218171D01*
X72333862Y-95211916D01*
X72361440Y-95209200D01*
X72820160Y-95209200D01*
X72847738Y-95211916D01*
X72847738Y-95211916D01*
G37*
G36*
X73817738Y-95211916D02*
G01*
X73838357Y-95218171D01*
X73857353Y-95228324D01*
X73874008Y-95241992D01*
X73887676Y-95258647D01*
X73897829Y-95277643D01*
X73904084Y-95298262D01*
X73906800Y-95325840D01*
X73906800Y-95834560D01*
X73904084Y-95862138D01*
X73897829Y-95882757D01*
X73887676Y-95901753D01*
X73874008Y-95918408D01*
X73857353Y-95932076D01*
X73838357Y-95942229D01*
X73817738Y-95948484D01*
X73790160Y-95951200D01*
X73331440Y-95951200D01*
X73303862Y-95948484D01*
X73283243Y-95942229D01*
X73264247Y-95932076D01*
X73247592Y-95918408D01*
X73233924Y-95901753D01*
X73223771Y-95882757D01*
X73217516Y-95862138D01*
X73214800Y-95834560D01*
X73214800Y-95325840D01*
X73217516Y-95298262D01*
X73223771Y-95277643D01*
X73233924Y-95258647D01*
X73247592Y-95241992D01*
X73264247Y-95228324D01*
X73283243Y-95218171D01*
X73303862Y-95211916D01*
X73331440Y-95209200D01*
X73790160Y-95209200D01*
X73817738Y-95211916D01*
X73817738Y-95211916D01*
G37*
G36*
X81163285Y-92053175D02*
G01*
X81518343Y-92200245D01*
X81518345Y-92200246D01*
X81837890Y-92413759D01*
X82109641Y-92685510D01*
X82282233Y-92943813D01*
X82323155Y-93005057D01*
X82470225Y-93360115D01*
X82545200Y-93737042D01*
X82545200Y-94121358D01*
X82470225Y-94498285D01*
X82387761Y-94697370D01*
X82323154Y-94853345D01*
X82109641Y-95172890D01*
X81837890Y-95444641D01*
X81518345Y-95658154D01*
X81518344Y-95658155D01*
X81518343Y-95658155D01*
X81163285Y-95805225D01*
X80786358Y-95880200D01*
X80402042Y-95880200D01*
X80025115Y-95805225D01*
X79670057Y-95658155D01*
X79670056Y-95658155D01*
X79670055Y-95658154D01*
X79350510Y-95444641D01*
X79078759Y-95172890D01*
X78865246Y-94853345D01*
X78800639Y-94697370D01*
X78718175Y-94498285D01*
X78643200Y-94121358D01*
X78643200Y-93737042D01*
X78718175Y-93360115D01*
X78865245Y-93005057D01*
X78906167Y-92943813D01*
X79078759Y-92685510D01*
X79350510Y-92413759D01*
X79670055Y-92200246D01*
X79670057Y-92200245D01*
X80025115Y-92053175D01*
X80402042Y-91978200D01*
X80786358Y-91978200D01*
X81163285Y-92053175D01*
X81163285Y-92053175D01*
G37*
G36*
X88625938Y-94500716D02*
G01*
X88646557Y-94506971D01*
X88665553Y-94517124D01*
X88682208Y-94530792D01*
X88695876Y-94547447D01*
X88706029Y-94566443D01*
X88712820Y-94588828D01*
X88716883Y-94609258D01*
X88726261Y-94631897D01*
X88739875Y-94652272D01*
X88757202Y-94669599D01*
X88777576Y-94683212D01*
X88800215Y-94692590D01*
X88824248Y-94697370D01*
X88848752Y-94697370D01*
X88872785Y-94692590D01*
X88895424Y-94683212D01*
X88915799Y-94669598D01*
X88933126Y-94652271D01*
X88946739Y-94631897D01*
X88956117Y-94609258D01*
X88960180Y-94588828D01*
X88966971Y-94566443D01*
X88977124Y-94547447D01*
X88990792Y-94530792D01*
X89007447Y-94517124D01*
X89026443Y-94506971D01*
X89047062Y-94500716D01*
X89074640Y-94498000D01*
X89533360Y-94498000D01*
X89560938Y-94500716D01*
X89581557Y-94506971D01*
X89600553Y-94517124D01*
X89617208Y-94530792D01*
X89630876Y-94547447D01*
X89641029Y-94566443D01*
X89647284Y-94587062D01*
X89650000Y-94614640D01*
X89650000Y-95123360D01*
X89647284Y-95150938D01*
X89641029Y-95171557D01*
X89630876Y-95190553D01*
X89617208Y-95207208D01*
X89600553Y-95220876D01*
X89581557Y-95231029D01*
X89560938Y-95237284D01*
X89533360Y-95240000D01*
X89074640Y-95240000D01*
X89047062Y-95237284D01*
X89026443Y-95231029D01*
X89007447Y-95220876D01*
X88990792Y-95207208D01*
X88977124Y-95190553D01*
X88966971Y-95171557D01*
X88960180Y-95149172D01*
X88956117Y-95128742D01*
X88946739Y-95106103D01*
X88933125Y-95085728D01*
X88915798Y-95068401D01*
X88895424Y-95054788D01*
X88872785Y-95045410D01*
X88848752Y-95040630D01*
X88824248Y-95040630D01*
X88800215Y-95045410D01*
X88777576Y-95054788D01*
X88757201Y-95068402D01*
X88739874Y-95085729D01*
X88726261Y-95106103D01*
X88716883Y-95128742D01*
X88712820Y-95149172D01*
X88706029Y-95171557D01*
X88695876Y-95190553D01*
X88682208Y-95207208D01*
X88665553Y-95220876D01*
X88646557Y-95231029D01*
X88625938Y-95237284D01*
X88598360Y-95240000D01*
X88139640Y-95240000D01*
X88112062Y-95237284D01*
X88091443Y-95231029D01*
X88072447Y-95220876D01*
X88055792Y-95207208D01*
X88042124Y-95190553D01*
X88031971Y-95171557D01*
X88025716Y-95150938D01*
X88023000Y-95123360D01*
X88023000Y-94614640D01*
X88025716Y-94587062D01*
X88031971Y-94566443D01*
X88042124Y-94547447D01*
X88055792Y-94530792D01*
X88072447Y-94517124D01*
X88091443Y-94506971D01*
X88112062Y-94500716D01*
X88139640Y-94498000D01*
X88598360Y-94498000D01*
X88625938Y-94500716D01*
X88625938Y-94500716D01*
G37*
G36*
X90530938Y-94500716D02*
G01*
X90551557Y-94506971D01*
X90570553Y-94517124D01*
X90587208Y-94530792D01*
X90600876Y-94547447D01*
X90611029Y-94566443D01*
X90617284Y-94587062D01*
X90620000Y-94614640D01*
X90620000Y-95123360D01*
X90617284Y-95150938D01*
X90611029Y-95171557D01*
X90600876Y-95190553D01*
X90587208Y-95207208D01*
X90570553Y-95220876D01*
X90551557Y-95231029D01*
X90530938Y-95237284D01*
X90503360Y-95240000D01*
X90044640Y-95240000D01*
X90017062Y-95237284D01*
X89996443Y-95231029D01*
X89977447Y-95220876D01*
X89960792Y-95207208D01*
X89947124Y-95190553D01*
X89936971Y-95171557D01*
X89930716Y-95150938D01*
X89928000Y-95123360D01*
X89928000Y-94614640D01*
X89930716Y-94587062D01*
X89936971Y-94566443D01*
X89947124Y-94547447D01*
X89960792Y-94530792D01*
X89977447Y-94517124D01*
X89996443Y-94506971D01*
X90017062Y-94500716D01*
X90044640Y-94498000D01*
X90503360Y-94498000D01*
X90530938Y-94500716D01*
X90530938Y-94500716D01*
G37*
G36*
X87655938Y-94500716D02*
G01*
X87676557Y-94506971D01*
X87695553Y-94517124D01*
X87712208Y-94530792D01*
X87725876Y-94547447D01*
X87736029Y-94566443D01*
X87742284Y-94587062D01*
X87745000Y-94614640D01*
X87745000Y-95123360D01*
X87742284Y-95150938D01*
X87736029Y-95171557D01*
X87725876Y-95190553D01*
X87712208Y-95207208D01*
X87695553Y-95220876D01*
X87676557Y-95231029D01*
X87655938Y-95237284D01*
X87628360Y-95240000D01*
X87169640Y-95240000D01*
X87142062Y-95237284D01*
X87121443Y-95231029D01*
X87102447Y-95220876D01*
X87085792Y-95207208D01*
X87072124Y-95190553D01*
X87061971Y-95171557D01*
X87055716Y-95150938D01*
X87053000Y-95123360D01*
X87053000Y-94614640D01*
X87055716Y-94587062D01*
X87061971Y-94566443D01*
X87072124Y-94547447D01*
X87085792Y-94530792D01*
X87102447Y-94517124D01*
X87121443Y-94506971D01*
X87142062Y-94500716D01*
X87169640Y-94498000D01*
X87628360Y-94498000D01*
X87655938Y-94500716D01*
X87655938Y-94500716D01*
G37*
G36*
X94863288Y-94412024D02*
G01*
X94884369Y-94418420D01*
X94903805Y-94428808D01*
X94920836Y-94442784D01*
X94934812Y-94459815D01*
X94945200Y-94479251D01*
X94951596Y-94500332D01*
X94954360Y-94528400D01*
X94954360Y-94992120D01*
X94951596Y-95020188D01*
X94945200Y-95041269D01*
X94934812Y-95060705D01*
X94920836Y-95077736D01*
X94903805Y-95091712D01*
X94884369Y-95102100D01*
X94863288Y-95108496D01*
X94835220Y-95111260D01*
X93421500Y-95111260D01*
X93393432Y-95108496D01*
X93372351Y-95102100D01*
X93352915Y-95091712D01*
X93335884Y-95077736D01*
X93321908Y-95060705D01*
X93311520Y-95041269D01*
X93305124Y-95020188D01*
X93302360Y-94992120D01*
X93302360Y-94528400D01*
X93305124Y-94500332D01*
X93311520Y-94479251D01*
X93321908Y-94459815D01*
X93335884Y-94442784D01*
X93352915Y-94428808D01*
X93372351Y-94418420D01*
X93393432Y-94412024D01*
X93421500Y-94409260D01*
X94835220Y-94409260D01*
X94863288Y-94412024D01*
X94863288Y-94412024D01*
G37*
G36*
X73817738Y-93967316D02*
G01*
X73838357Y-93973571D01*
X73857353Y-93983724D01*
X73874008Y-93997392D01*
X73887676Y-94014047D01*
X73897829Y-94033043D01*
X73904084Y-94053662D01*
X73906800Y-94081240D01*
X73906800Y-94589960D01*
X73904084Y-94617538D01*
X73897829Y-94638157D01*
X73887676Y-94657153D01*
X73874008Y-94673808D01*
X73857353Y-94687476D01*
X73838357Y-94697629D01*
X73817738Y-94703884D01*
X73790160Y-94706600D01*
X73331440Y-94706600D01*
X73303862Y-94703884D01*
X73283243Y-94697629D01*
X73264247Y-94687476D01*
X73247592Y-94673808D01*
X73233924Y-94657153D01*
X73223771Y-94638157D01*
X73217516Y-94617538D01*
X73214800Y-94589960D01*
X73214800Y-94081240D01*
X73217516Y-94053662D01*
X73223771Y-94033043D01*
X73233924Y-94014047D01*
X73247592Y-93997392D01*
X73264247Y-93983724D01*
X73283243Y-93973571D01*
X73303862Y-93967316D01*
X73331440Y-93964600D01*
X73790160Y-93964600D01*
X73817738Y-93967316D01*
X73817738Y-93967316D01*
G37*
G36*
X72847738Y-93967316D02*
G01*
X72868357Y-93973571D01*
X72887353Y-93983724D01*
X72904008Y-93997392D01*
X72917676Y-94014047D01*
X72927829Y-94033043D01*
X72934084Y-94053662D01*
X72936800Y-94081240D01*
X72936800Y-94589960D01*
X72934084Y-94617538D01*
X72927829Y-94638157D01*
X72917676Y-94657153D01*
X72904008Y-94673808D01*
X72887353Y-94687476D01*
X72868357Y-94697629D01*
X72847738Y-94703884D01*
X72820160Y-94706600D01*
X72361440Y-94706600D01*
X72333862Y-94703884D01*
X72313243Y-94697629D01*
X72294247Y-94687476D01*
X72277592Y-94673808D01*
X72263924Y-94657153D01*
X72253771Y-94638157D01*
X72247516Y-94617538D01*
X72244800Y-94589960D01*
X72244800Y-94081240D01*
X72247516Y-94053662D01*
X72253771Y-94033043D01*
X72263924Y-94014047D01*
X72277592Y-93997392D01*
X72294247Y-93983724D01*
X72313243Y-93973571D01*
X72333862Y-93967316D01*
X72361440Y-93964600D01*
X72820160Y-93964600D01*
X72847738Y-93967316D01*
X72847738Y-93967316D01*
G37*
G36*
X94863288Y-93412024D02*
G01*
X94884369Y-93418420D01*
X94903805Y-93428808D01*
X94920836Y-93442784D01*
X94934812Y-93459815D01*
X94945200Y-93479251D01*
X94951596Y-93500332D01*
X94954360Y-93528400D01*
X94954360Y-93992120D01*
X94951596Y-94020188D01*
X94945200Y-94041269D01*
X94934812Y-94060705D01*
X94920836Y-94077736D01*
X94903805Y-94091712D01*
X94884369Y-94102100D01*
X94863288Y-94108496D01*
X94835220Y-94111260D01*
X93421500Y-94111260D01*
X93393432Y-94108496D01*
X93372351Y-94102100D01*
X93352915Y-94091712D01*
X93335884Y-94077736D01*
X93321908Y-94060705D01*
X93311520Y-94041269D01*
X93305124Y-94020188D01*
X93302360Y-93992120D01*
X93302360Y-93528400D01*
X93305124Y-93500332D01*
X93311520Y-93479251D01*
X93321908Y-93459815D01*
X93335884Y-93442784D01*
X93352915Y-93428808D01*
X93372351Y-93418420D01*
X93393432Y-93412024D01*
X93421500Y-93409260D01*
X94835220Y-93409260D01*
X94863288Y-93412024D01*
X94863288Y-93412024D01*
G37*
G36*
X90530938Y-93230716D02*
G01*
X90551557Y-93236971D01*
X90570553Y-93247124D01*
X90587208Y-93260792D01*
X90600876Y-93277447D01*
X90611029Y-93296443D01*
X90617284Y-93317062D01*
X90620000Y-93344640D01*
X90620000Y-93853360D01*
X90617284Y-93880938D01*
X90611029Y-93901557D01*
X90600876Y-93920553D01*
X90587208Y-93937208D01*
X90570553Y-93950876D01*
X90551557Y-93961029D01*
X90530938Y-93967284D01*
X90503360Y-93970000D01*
X90044640Y-93970000D01*
X90017062Y-93967284D01*
X89996443Y-93961029D01*
X89977447Y-93950876D01*
X89960792Y-93937208D01*
X89947124Y-93920553D01*
X89936971Y-93901557D01*
X89930716Y-93880938D01*
X89928000Y-93853360D01*
X89928000Y-93344640D01*
X89930716Y-93317062D01*
X89936971Y-93296443D01*
X89947124Y-93277447D01*
X89960792Y-93260792D01*
X89977447Y-93247124D01*
X89996443Y-93236971D01*
X90017062Y-93230716D01*
X90044640Y-93228000D01*
X90503360Y-93228000D01*
X90530938Y-93230716D01*
X90530938Y-93230716D01*
G37*
G36*
X87655938Y-93230716D02*
G01*
X87676557Y-93236971D01*
X87695553Y-93247124D01*
X87712208Y-93260792D01*
X87725876Y-93277447D01*
X87736029Y-93296443D01*
X87742284Y-93317062D01*
X87745000Y-93344640D01*
X87745000Y-93853360D01*
X87742284Y-93880938D01*
X87736029Y-93901557D01*
X87725876Y-93920553D01*
X87712208Y-93937208D01*
X87695553Y-93950876D01*
X87676557Y-93961029D01*
X87655938Y-93967284D01*
X87628360Y-93970000D01*
X87169640Y-93970000D01*
X87142062Y-93967284D01*
X87121443Y-93961029D01*
X87102447Y-93950876D01*
X87085792Y-93937208D01*
X87072124Y-93920553D01*
X87061971Y-93901557D01*
X87055716Y-93880938D01*
X87053000Y-93853360D01*
X87053000Y-93344640D01*
X87055716Y-93317062D01*
X87061971Y-93296443D01*
X87072124Y-93277447D01*
X87085792Y-93260792D01*
X87102447Y-93247124D01*
X87121443Y-93236971D01*
X87142062Y-93230716D01*
X87169640Y-93228000D01*
X87628360Y-93228000D01*
X87655938Y-93230716D01*
X87655938Y-93230716D01*
G37*
G36*
X88625938Y-93230716D02*
G01*
X88646557Y-93236971D01*
X88665553Y-93247124D01*
X88682208Y-93260792D01*
X88695876Y-93277447D01*
X88706029Y-93296443D01*
X88712820Y-93318828D01*
X88716883Y-93339258D01*
X88726261Y-93361897D01*
X88739875Y-93382272D01*
X88757202Y-93399599D01*
X88777576Y-93413212D01*
X88800215Y-93422590D01*
X88824248Y-93427370D01*
X88848752Y-93427370D01*
X88872785Y-93422590D01*
X88895424Y-93413212D01*
X88915799Y-93399598D01*
X88933126Y-93382271D01*
X88946739Y-93361897D01*
X88956117Y-93339258D01*
X88960180Y-93318828D01*
X88966971Y-93296443D01*
X88977124Y-93277447D01*
X88990792Y-93260792D01*
X89007447Y-93247124D01*
X89026443Y-93236971D01*
X89047062Y-93230716D01*
X89074640Y-93228000D01*
X89533360Y-93228000D01*
X89560938Y-93230716D01*
X89581557Y-93236971D01*
X89600553Y-93247124D01*
X89617208Y-93260792D01*
X89630876Y-93277447D01*
X89641029Y-93296443D01*
X89647284Y-93317062D01*
X89650000Y-93344640D01*
X89650000Y-93853360D01*
X89647284Y-93880938D01*
X89641029Y-93901557D01*
X89630876Y-93920553D01*
X89617208Y-93937208D01*
X89600553Y-93950876D01*
X89581557Y-93961029D01*
X89560938Y-93967284D01*
X89533360Y-93970000D01*
X89074640Y-93970000D01*
X89047062Y-93967284D01*
X89026443Y-93961029D01*
X89007447Y-93950876D01*
X88990792Y-93937208D01*
X88977124Y-93920553D01*
X88966971Y-93901557D01*
X88960180Y-93879172D01*
X88956117Y-93858742D01*
X88946739Y-93836103D01*
X88933125Y-93815728D01*
X88915798Y-93798401D01*
X88895424Y-93784788D01*
X88872785Y-93775410D01*
X88848752Y-93770630D01*
X88824248Y-93770630D01*
X88800215Y-93775410D01*
X88777576Y-93784788D01*
X88757201Y-93798402D01*
X88739874Y-93815729D01*
X88726261Y-93836103D01*
X88716883Y-93858742D01*
X88712820Y-93879172D01*
X88706029Y-93901557D01*
X88695876Y-93920553D01*
X88682208Y-93937208D01*
X88665553Y-93950876D01*
X88646557Y-93961029D01*
X88625938Y-93967284D01*
X88598360Y-93970000D01*
X88139640Y-93970000D01*
X88112062Y-93967284D01*
X88091443Y-93961029D01*
X88072447Y-93950876D01*
X88055792Y-93937208D01*
X88042124Y-93920553D01*
X88031971Y-93901557D01*
X88025716Y-93880938D01*
X88023000Y-93853360D01*
X88023000Y-93344640D01*
X88025716Y-93317062D01*
X88031971Y-93296443D01*
X88042124Y-93277447D01*
X88055792Y-93260792D01*
X88072447Y-93247124D01*
X88091443Y-93236971D01*
X88112062Y-93230716D01*
X88139640Y-93228000D01*
X88598360Y-93228000D01*
X88625938Y-93230716D01*
X88625938Y-93230716D01*
G37*
G36*
X86085800Y-93791200D02*
G01*
X83433800Y-93791200D01*
X83433800Y-92629200D01*
X86085800Y-92629200D01*
X86085800Y-93791200D01*
X86085800Y-93791200D01*
G37*
G36*
X77195800Y-93791200D02*
G01*
X74543800Y-93791200D01*
X74543800Y-92629200D01*
X77195800Y-92629200D01*
X77195800Y-93791200D01*
X77195800Y-93791200D01*
G37*
G36*
X71607800Y-93791200D02*
G01*
X68955800Y-93791200D01*
X68955800Y-92629200D01*
X71607800Y-92629200D01*
X71607800Y-93791200D01*
X71607800Y-93791200D01*
G37*
G36*
X73817738Y-92722716D02*
G01*
X73838357Y-92728971D01*
X73857353Y-92739124D01*
X73874008Y-92752792D01*
X73887676Y-92769447D01*
X73897829Y-92788443D01*
X73904084Y-92809062D01*
X73906800Y-92836640D01*
X73906800Y-93345360D01*
X73904084Y-93372938D01*
X73897829Y-93393557D01*
X73887676Y-93412553D01*
X73874008Y-93429208D01*
X73857353Y-93442876D01*
X73838357Y-93453029D01*
X73817738Y-93459284D01*
X73790160Y-93462000D01*
X73331440Y-93462000D01*
X73303862Y-93459284D01*
X73283243Y-93453029D01*
X73264247Y-93442876D01*
X73247592Y-93429208D01*
X73233924Y-93412553D01*
X73223771Y-93393557D01*
X73217516Y-93372938D01*
X73214800Y-93345360D01*
X73214800Y-92836640D01*
X73217516Y-92809062D01*
X73223771Y-92788443D01*
X73233924Y-92769447D01*
X73247592Y-92752792D01*
X73264247Y-92739124D01*
X73283243Y-92728971D01*
X73303862Y-92722716D01*
X73331440Y-92720000D01*
X73790160Y-92720000D01*
X73817738Y-92722716D01*
X73817738Y-92722716D01*
G37*
G36*
X72847738Y-92722716D02*
G01*
X72868357Y-92728971D01*
X72887353Y-92739124D01*
X72904008Y-92752792D01*
X72917676Y-92769447D01*
X72927829Y-92788443D01*
X72934084Y-92809062D01*
X72936800Y-92836640D01*
X72936800Y-93345360D01*
X72934084Y-93372938D01*
X72927829Y-93393557D01*
X72917676Y-93412553D01*
X72904008Y-93429208D01*
X72887353Y-93442876D01*
X72868357Y-93453029D01*
X72847738Y-93459284D01*
X72820160Y-93462000D01*
X72361440Y-93462000D01*
X72333862Y-93459284D01*
X72313243Y-93453029D01*
X72294247Y-93442876D01*
X72277592Y-93429208D01*
X72263924Y-93412553D01*
X72253771Y-93393557D01*
X72247516Y-93372938D01*
X72244800Y-93345360D01*
X72244800Y-92836640D01*
X72247516Y-92809062D01*
X72253771Y-92788443D01*
X72263924Y-92769447D01*
X72277592Y-92752792D01*
X72294247Y-92739124D01*
X72313243Y-92728971D01*
X72333862Y-92722716D01*
X72361440Y-92720000D01*
X72820160Y-92720000D01*
X72847738Y-92722716D01*
X72847738Y-92722716D01*
G37*
G36*
X98794602Y-91813664D02*
G01*
X98831697Y-91824917D01*
X98865875Y-91843185D01*
X98895841Y-91867779D01*
X98920435Y-91897745D01*
X98938703Y-91931923D01*
X98949956Y-91969018D01*
X98954360Y-92013734D01*
X98954360Y-92906786D01*
X98949956Y-92951502D01*
X98938703Y-92988597D01*
X98920435Y-93022775D01*
X98895841Y-93052741D01*
X98865875Y-93077335D01*
X98831697Y-93095603D01*
X98794602Y-93106856D01*
X98749886Y-93111260D01*
X97256834Y-93111260D01*
X97212118Y-93106856D01*
X97175023Y-93095603D01*
X97140845Y-93077335D01*
X97110879Y-93052741D01*
X97086285Y-93022775D01*
X97068017Y-92988597D01*
X97056764Y-92951502D01*
X97052360Y-92906786D01*
X97052360Y-92013734D01*
X97056764Y-91969018D01*
X97068017Y-91931923D01*
X97086285Y-91897745D01*
X97110879Y-91867779D01*
X97140845Y-91843185D01*
X97175023Y-91824917D01*
X97212118Y-91813664D01*
X97256834Y-91809260D01*
X98749886Y-91809260D01*
X98794602Y-91813664D01*
X98794602Y-91813664D01*
G37*
G36*
X88625938Y-91960716D02*
G01*
X88646557Y-91966971D01*
X88665553Y-91977124D01*
X88682208Y-91990792D01*
X88695876Y-92007447D01*
X88706029Y-92026443D01*
X88712284Y-92047062D01*
X88715000Y-92074640D01*
X88715000Y-92583360D01*
X88712284Y-92610938D01*
X88706029Y-92631557D01*
X88695876Y-92650553D01*
X88682208Y-92667208D01*
X88665553Y-92680876D01*
X88646557Y-92691029D01*
X88625938Y-92697284D01*
X88598360Y-92700000D01*
X88139640Y-92700000D01*
X88112062Y-92697284D01*
X88091443Y-92691029D01*
X88072447Y-92680876D01*
X88055792Y-92667208D01*
X88042124Y-92650553D01*
X88031971Y-92631557D01*
X88025716Y-92610938D01*
X88023000Y-92583360D01*
X88023000Y-92074640D01*
X88025716Y-92047062D01*
X88031971Y-92026443D01*
X88042124Y-92007447D01*
X88055792Y-91990792D01*
X88072447Y-91977124D01*
X88091443Y-91966971D01*
X88112062Y-91960716D01*
X88139640Y-91958000D01*
X88598360Y-91958000D01*
X88625938Y-91960716D01*
X88625938Y-91960716D01*
G37*
G36*
X87655938Y-91960716D02*
G01*
X87676557Y-91966971D01*
X87695553Y-91977124D01*
X87712208Y-91990792D01*
X87725876Y-92007447D01*
X87736029Y-92026443D01*
X87742284Y-92047062D01*
X87745000Y-92074640D01*
X87745000Y-92583360D01*
X87742284Y-92610938D01*
X87736029Y-92631557D01*
X87725876Y-92650553D01*
X87712208Y-92667208D01*
X87695553Y-92680876D01*
X87676557Y-92691029D01*
X87655938Y-92697284D01*
X87628360Y-92700000D01*
X87169640Y-92700000D01*
X87142062Y-92697284D01*
X87121443Y-92691029D01*
X87102447Y-92680876D01*
X87085792Y-92667208D01*
X87072124Y-92650553D01*
X87061971Y-92631557D01*
X87055716Y-92610938D01*
X87053000Y-92583360D01*
X87053000Y-92074640D01*
X87055716Y-92047062D01*
X87061971Y-92026443D01*
X87072124Y-92007447D01*
X87085792Y-91990792D01*
X87102447Y-91977124D01*
X87121443Y-91966971D01*
X87142062Y-91960716D01*
X87169640Y-91958000D01*
X87628360Y-91958000D01*
X87655938Y-91960716D01*
X87655938Y-91960716D01*
G37*
G36*
X73643515Y-90165258D02*
G01*
X73702518Y-90183157D01*
X73761519Y-90201054D01*
X73761521Y-90201055D01*
X73845288Y-90245829D01*
X73867927Y-90255207D01*
X73891960Y-90259987D01*
X73916464Y-90259987D01*
X73940497Y-90255207D01*
X73963136Y-90245829D01*
X73964385Y-90244994D01*
X73960197Y-90258802D01*
X73957795Y-90283188D01*
X73960197Y-90307574D01*
X73967310Y-90331023D01*
X73978861Y-90352633D01*
X73986169Y-90362486D01*
X74043819Y-90432732D01*
X74101945Y-90541478D01*
X74137742Y-90659485D01*
X74149828Y-90782200D01*
X74137742Y-90904915D01*
X74101945Y-91022922D01*
X74043819Y-91131668D01*
X73965590Y-91226990D01*
X73870268Y-91305219D01*
X73761522Y-91363345D01*
X73643515Y-91399142D01*
X73551546Y-91408200D01*
X72340054Y-91408200D01*
X72248085Y-91399142D01*
X72130078Y-91363345D01*
X72021332Y-91305219D01*
X71926010Y-91226990D01*
X71847781Y-91131668D01*
X71789655Y-91022922D01*
X71753858Y-90904915D01*
X71741772Y-90782200D01*
X71753858Y-90659485D01*
X71789655Y-90541478D01*
X71847781Y-90432732D01*
X71926010Y-90337410D01*
X72021332Y-90259181D01*
X72130078Y-90201055D01*
X72248085Y-90165258D01*
X72340054Y-90156200D01*
X73551546Y-90156200D01*
X73643515Y-90165258D01*
X73643515Y-90165258D01*
G37*
G36*
X70643515Y-90165258D02*
G01*
X70761522Y-90201055D01*
X70870268Y-90259181D01*
X70965590Y-90337410D01*
X71043819Y-90432732D01*
X71101945Y-90541478D01*
X71137742Y-90659485D01*
X71149828Y-90782200D01*
X71137742Y-90904915D01*
X71101945Y-91022922D01*
X71043819Y-91131668D01*
X70965590Y-91226990D01*
X70870268Y-91305219D01*
X70761522Y-91363345D01*
X70643515Y-91399142D01*
X70551546Y-91408200D01*
X69340054Y-91408200D01*
X69248085Y-91399142D01*
X69130078Y-91363345D01*
X69021332Y-91305219D01*
X68926010Y-91226990D01*
X68847781Y-91131668D01*
X68789655Y-91022922D01*
X68753858Y-90904915D01*
X68741772Y-90782200D01*
X68753858Y-90659485D01*
X68789655Y-90541478D01*
X68847781Y-90432732D01*
X68926010Y-90337410D01*
X69021332Y-90259181D01*
X69130078Y-90201055D01*
X69248085Y-90165258D01*
X69340054Y-90156200D01*
X70551546Y-90156200D01*
X70643515Y-90165258D01*
X70643515Y-90165258D01*
G37*
G36*
X74473708Y-82160551D02*
G01*
X74553505Y-82193604D01*
X74625327Y-82241594D01*
X74686406Y-82302673D01*
X74734396Y-82374495D01*
X74767449Y-82454292D01*
X74784300Y-82539010D01*
X74784300Y-82625390D01*
X74767449Y-82710108D01*
X74734396Y-82789905D01*
X74686406Y-82861727D01*
X74625327Y-82922806D01*
X74553505Y-82970796D01*
X74473708Y-83003849D01*
X74388990Y-83020700D01*
X74302610Y-83020700D01*
X74217892Y-83003849D01*
X74152416Y-82976728D01*
X74128967Y-82969615D01*
X74104581Y-82967213D01*
X74080195Y-82969615D01*
X74056746Y-82976728D01*
X74035135Y-82988280D01*
X74016194Y-83003825D01*
X74000649Y-83022767D01*
X73989098Y-83044378D01*
X73981985Y-83067827D01*
X73979583Y-83092213D01*
X73981985Y-83116599D01*
X73989098Y-83140048D01*
X74000646Y-83161652D01*
X74029007Y-83204097D01*
X74057350Y-83272525D01*
X74057351Y-83272528D01*
X74071800Y-83345166D01*
X74071800Y-83419234D01*
X74071519Y-83420649D01*
X74057350Y-83491875D01*
X74029007Y-83560303D01*
X73987858Y-83621886D01*
X73935486Y-83674258D01*
X73873903Y-83715407D01*
X73805475Y-83743750D01*
X73805474Y-83743750D01*
X73805472Y-83743751D01*
X73732834Y-83758200D01*
X73658766Y-83758200D01*
X73586126Y-83743751D01*
X73542704Y-83725765D01*
X73519255Y-83718652D01*
X73494869Y-83716250D01*
X73470483Y-83718652D01*
X73447034Y-83725765D01*
X73425424Y-83737316D01*
X73406482Y-83752861D01*
X73390936Y-83771803D01*
X73379385Y-83793414D01*
X73372272Y-83816862D01*
X73357351Y-83891873D01*
X73357350Y-83891875D01*
X73329007Y-83960303D01*
X73287858Y-84021886D01*
X73235486Y-84074258D01*
X73229479Y-84078272D01*
X73210544Y-84093812D01*
X73194999Y-84112753D01*
X73183447Y-84134364D01*
X73176334Y-84157813D01*
X73173932Y-84182199D01*
X73176334Y-84206585D01*
X73183447Y-84230034D01*
X73194997Y-84251645D01*
X73210543Y-84270587D01*
X73229479Y-84286128D01*
X73235486Y-84290142D01*
X73287858Y-84342514D01*
X73329007Y-84404097D01*
X73353199Y-84462504D01*
X73357351Y-84472527D01*
X73372272Y-84547538D01*
X73379385Y-84570986D01*
X73390936Y-84592597D01*
X73406482Y-84611539D01*
X73425424Y-84627084D01*
X73447034Y-84638635D01*
X73470483Y-84645748D01*
X73494869Y-84648150D01*
X73519256Y-84645748D01*
X73542704Y-84638635D01*
X73586126Y-84620649D01*
X73658766Y-84606200D01*
X73732834Y-84606200D01*
X73805472Y-84620649D01*
X73805474Y-84620650D01*
X73805475Y-84620650D01*
X73873903Y-84648993D01*
X73935486Y-84690142D01*
X73987858Y-84742514D01*
X74029007Y-84804097D01*
X74057350Y-84872525D01*
X74057351Y-84872528D01*
X74071800Y-84945166D01*
X74071800Y-85019234D01*
X74061585Y-85070588D01*
X74057350Y-85091875D01*
X74029007Y-85160303D01*
X73987858Y-85221886D01*
X73935486Y-85274258D01*
X73929479Y-85278272D01*
X73910544Y-85293812D01*
X73894999Y-85312753D01*
X73883447Y-85334364D01*
X73876334Y-85357813D01*
X73873932Y-85382199D01*
X73876334Y-85406585D01*
X73883447Y-85430034D01*
X73894997Y-85451645D01*
X73910543Y-85470587D01*
X73929479Y-85486128D01*
X73935486Y-85490142D01*
X73987858Y-85542514D01*
X74029007Y-85604097D01*
X74057350Y-85672525D01*
X74057351Y-85672528D01*
X74071800Y-85745166D01*
X74071800Y-85819234D01*
X74057351Y-85891872D01*
X74057350Y-85891874D01*
X74057350Y-85891875D01*
X74029007Y-85960303D01*
X73987858Y-86021886D01*
X73935486Y-86074258D01*
X73929479Y-86078272D01*
X73910544Y-86093812D01*
X73894999Y-86112753D01*
X73883447Y-86134364D01*
X73876334Y-86157813D01*
X73873932Y-86182199D01*
X73876334Y-86206585D01*
X73883447Y-86230034D01*
X73894997Y-86251645D01*
X73910543Y-86270587D01*
X73929479Y-86286128D01*
X73935486Y-86290142D01*
X73987858Y-86342514D01*
X74029007Y-86404097D01*
X74057350Y-86472525D01*
X74057351Y-86472528D01*
X74071800Y-86545166D01*
X74071800Y-86619234D01*
X74071519Y-86620649D01*
X74057350Y-86691875D01*
X74029007Y-86760303D01*
X73987858Y-86821886D01*
X73935486Y-86874258D01*
X73929479Y-86878272D01*
X73910544Y-86893812D01*
X73894999Y-86912753D01*
X73883447Y-86934364D01*
X73876334Y-86957813D01*
X73873932Y-86982199D01*
X73876334Y-87006585D01*
X73883447Y-87030034D01*
X73894997Y-87051645D01*
X73910543Y-87070587D01*
X73929479Y-87086128D01*
X73935486Y-87090142D01*
X73987858Y-87142514D01*
X74029007Y-87204097D01*
X74057350Y-87272525D01*
X74057351Y-87272528D01*
X74071800Y-87345166D01*
X74071800Y-87419234D01*
X74061585Y-87470588D01*
X74057350Y-87491875D01*
X74029007Y-87560303D01*
X73987858Y-87621886D01*
X73935486Y-87674258D01*
X73873903Y-87715407D01*
X73805475Y-87743750D01*
X73805474Y-87743750D01*
X73805472Y-87743751D01*
X73732834Y-87758200D01*
X73658766Y-87758200D01*
X73586126Y-87743751D01*
X73542704Y-87725765D01*
X73519255Y-87718652D01*
X73494869Y-87716250D01*
X73470483Y-87718652D01*
X73447034Y-87725765D01*
X73425424Y-87737316D01*
X73406482Y-87752861D01*
X73390936Y-87771803D01*
X73379385Y-87793414D01*
X73372272Y-87816862D01*
X73357351Y-87891873D01*
X73357350Y-87891875D01*
X73329007Y-87960303D01*
X73287858Y-88021886D01*
X73235486Y-88074258D01*
X73229479Y-88078272D01*
X73210544Y-88093812D01*
X73194999Y-88112753D01*
X73183447Y-88134364D01*
X73176334Y-88157813D01*
X73173932Y-88182199D01*
X73176334Y-88206585D01*
X73183447Y-88230034D01*
X73194997Y-88251645D01*
X73210543Y-88270587D01*
X73229479Y-88286128D01*
X73235486Y-88290142D01*
X73287858Y-88342514D01*
X73329007Y-88404097D01*
X73353199Y-88462504D01*
X73357351Y-88472527D01*
X73372272Y-88547538D01*
X73379385Y-88570986D01*
X73390936Y-88592597D01*
X73406482Y-88611539D01*
X73425424Y-88627084D01*
X73447034Y-88638635D01*
X73470483Y-88645748D01*
X73494869Y-88648150D01*
X73519256Y-88645748D01*
X73542704Y-88638635D01*
X73586126Y-88620649D01*
X73658766Y-88606200D01*
X73732834Y-88606200D01*
X73805472Y-88620649D01*
X73805474Y-88620650D01*
X73805475Y-88620650D01*
X73873903Y-88648993D01*
X73935486Y-88690142D01*
X73987858Y-88742514D01*
X74029007Y-88804097D01*
X74057350Y-88872525D01*
X74057351Y-88872528D01*
X74071800Y-88945166D01*
X74071800Y-89019234D01*
X74057351Y-89091872D01*
X74057350Y-89091874D01*
X74057350Y-89091875D01*
X74029007Y-89160303D01*
X74000646Y-89202748D01*
X73989098Y-89224353D01*
X73981985Y-89247802D01*
X73979583Y-89272188D01*
X73981985Y-89296574D01*
X73989098Y-89320023D01*
X74000649Y-89341634D01*
X74016194Y-89360576D01*
X74035136Y-89376121D01*
X74056747Y-89387672D01*
X74080196Y-89394785D01*
X74104582Y-89397187D01*
X74128968Y-89394785D01*
X74152416Y-89387672D01*
X74217892Y-89360551D01*
X74302610Y-89343700D01*
X74388990Y-89343700D01*
X74473708Y-89360551D01*
X74553505Y-89393604D01*
X74625327Y-89441594D01*
X74686406Y-89502673D01*
X74734396Y-89574495D01*
X74767449Y-89654292D01*
X74784300Y-89739010D01*
X74784300Y-89825390D01*
X74767449Y-89910108D01*
X74734396Y-89989905D01*
X74686406Y-90061727D01*
X74625327Y-90122806D01*
X74553505Y-90170796D01*
X74473708Y-90203849D01*
X74388990Y-90220700D01*
X74302610Y-90220700D01*
X74217892Y-90203849D01*
X74130628Y-90167703D01*
X74107179Y-90160590D01*
X74082793Y-90158188D01*
X74058407Y-90160590D01*
X74034958Y-90167703D01*
X74022884Y-90174157D01*
X74023829Y-90171875D01*
X74028609Y-90147842D01*
X74028609Y-90123338D01*
X74023829Y-90099305D01*
X74008145Y-90066145D01*
X73957205Y-89989908D01*
X73924151Y-89910108D01*
X73907300Y-89825390D01*
X73907300Y-89739010D01*
X73924151Y-89654292D01*
X73957205Y-89574492D01*
X73999516Y-89511169D01*
X74011067Y-89489558D01*
X74018180Y-89466109D01*
X74020582Y-89441723D01*
X74018180Y-89417337D01*
X74011067Y-89393888D01*
X73999516Y-89372278D01*
X73983970Y-89353336D01*
X73965028Y-89337791D01*
X73943417Y-89326240D01*
X73919968Y-89319127D01*
X73895582Y-89316725D01*
X73871196Y-89319127D01*
X73847747Y-89326241D01*
X73805477Y-89343751D01*
X73732834Y-89358200D01*
X73658766Y-89358200D01*
X73586128Y-89343751D01*
X73586126Y-89343750D01*
X73586125Y-89343750D01*
X73517697Y-89315407D01*
X73456114Y-89274258D01*
X73403742Y-89221886D01*
X73362593Y-89160303D01*
X73334250Y-89091875D01*
X73334249Y-89091873D01*
X73319328Y-89016862D01*
X73312215Y-88993414D01*
X73300664Y-88971803D01*
X73285118Y-88952861D01*
X73266176Y-88937316D01*
X73244566Y-88925765D01*
X73221117Y-88918652D01*
X73196731Y-88916250D01*
X73172344Y-88918652D01*
X73148896Y-88925765D01*
X73105474Y-88943751D01*
X73032834Y-88958200D01*
X72958766Y-88958200D01*
X72886128Y-88943751D01*
X72886126Y-88943750D01*
X72886125Y-88943750D01*
X72817697Y-88915407D01*
X72756114Y-88874258D01*
X72703742Y-88821886D01*
X72662593Y-88760303D01*
X72634250Y-88691875D01*
X72620082Y-88620649D01*
X72619800Y-88619234D01*
X72619800Y-88545166D01*
X72634249Y-88472528D01*
X72634250Y-88472525D01*
X72662593Y-88404097D01*
X72703742Y-88342514D01*
X72756114Y-88290142D01*
X72762121Y-88286128D01*
X72781056Y-88270588D01*
X72796601Y-88251647D01*
X72808153Y-88230036D01*
X72815266Y-88206587D01*
X72817668Y-88182201D01*
X72815266Y-88157815D01*
X72808153Y-88134366D01*
X72796603Y-88112755D01*
X72781057Y-88093813D01*
X72762121Y-88078272D01*
X72756114Y-88074258D01*
X72703742Y-88021886D01*
X72662593Y-87960303D01*
X72634250Y-87891875D01*
X72634250Y-87891874D01*
X72634249Y-87891872D01*
X72619800Y-87819234D01*
X72619800Y-87745166D01*
X72634249Y-87672528D01*
X72634250Y-87672525D01*
X72662593Y-87604097D01*
X72703742Y-87542514D01*
X72756114Y-87490142D01*
X72762121Y-87486128D01*
X72781056Y-87470588D01*
X72796601Y-87451647D01*
X72808153Y-87430036D01*
X72815266Y-87406587D01*
X72817668Y-87382201D01*
X72815266Y-87357815D01*
X72808153Y-87334366D01*
X72796603Y-87312755D01*
X72781057Y-87293813D01*
X72762121Y-87278272D01*
X72756114Y-87274258D01*
X72703742Y-87221886D01*
X72662593Y-87160303D01*
X72634250Y-87091875D01*
X72621949Y-87030034D01*
X72619800Y-87019234D01*
X72619800Y-86945166D01*
X72634249Y-86872528D01*
X72634250Y-86872525D01*
X72662593Y-86804097D01*
X72703742Y-86742514D01*
X72756114Y-86690142D01*
X72817697Y-86648993D01*
X72886125Y-86620650D01*
X72886126Y-86620650D01*
X72886128Y-86620649D01*
X72958766Y-86606200D01*
X73032834Y-86606200D01*
X73105474Y-86620649D01*
X73148896Y-86638635D01*
X73172345Y-86645748D01*
X73196731Y-86648150D01*
X73221117Y-86645748D01*
X73244566Y-86638635D01*
X73266176Y-86627084D01*
X73285118Y-86611539D01*
X73300664Y-86592597D01*
X73312215Y-86570986D01*
X73319328Y-86547538D01*
X73334249Y-86472527D01*
X73338401Y-86462504D01*
X73362593Y-86404097D01*
X73403742Y-86342514D01*
X73456114Y-86290142D01*
X73462121Y-86286128D01*
X73481056Y-86270588D01*
X73496601Y-86251647D01*
X73508153Y-86230036D01*
X73515266Y-86206587D01*
X73517668Y-86182201D01*
X73515266Y-86157815D01*
X73508153Y-86134366D01*
X73496603Y-86112755D01*
X73481057Y-86093813D01*
X73462121Y-86078272D01*
X73456114Y-86074258D01*
X73403742Y-86021886D01*
X73362593Y-85960303D01*
X73334250Y-85891875D01*
X73334249Y-85891873D01*
X73319328Y-85816862D01*
X73312215Y-85793414D01*
X73300664Y-85771803D01*
X73285118Y-85752861D01*
X73266176Y-85737316D01*
X73244566Y-85725765D01*
X73221117Y-85718652D01*
X73196731Y-85716250D01*
X73172344Y-85718652D01*
X73148896Y-85725765D01*
X73105474Y-85743751D01*
X73032834Y-85758200D01*
X72958766Y-85758200D01*
X72886128Y-85743751D01*
X72886126Y-85743750D01*
X72886125Y-85743750D01*
X72817697Y-85715407D01*
X72756114Y-85674258D01*
X72703742Y-85621886D01*
X72662593Y-85560303D01*
X72634250Y-85491875D01*
X72621949Y-85430034D01*
X72619800Y-85419234D01*
X72619800Y-85345166D01*
X72634249Y-85272528D01*
X72634250Y-85272525D01*
X72662593Y-85204097D01*
X72703742Y-85142514D01*
X72756114Y-85090142D01*
X72762121Y-85086128D01*
X72781056Y-85070588D01*
X72796601Y-85051647D01*
X72808153Y-85030036D01*
X72815266Y-85006587D01*
X72817668Y-84982201D01*
X72815266Y-84957815D01*
X72808153Y-84934366D01*
X72796603Y-84912755D01*
X72781057Y-84893813D01*
X72762121Y-84878272D01*
X72756114Y-84874258D01*
X72703742Y-84821886D01*
X72662593Y-84760303D01*
X72634250Y-84691875D01*
X72620082Y-84620649D01*
X72619800Y-84619234D01*
X72619800Y-84545166D01*
X72634249Y-84472528D01*
X72634250Y-84472525D01*
X72662593Y-84404097D01*
X72703742Y-84342514D01*
X72756114Y-84290142D01*
X72762121Y-84286128D01*
X72781056Y-84270588D01*
X72796601Y-84251647D01*
X72808153Y-84230036D01*
X72815266Y-84206587D01*
X72817668Y-84182201D01*
X72815266Y-84157815D01*
X72808153Y-84134366D01*
X72796603Y-84112755D01*
X72781057Y-84093813D01*
X72762121Y-84078272D01*
X72756114Y-84074258D01*
X72703742Y-84021886D01*
X72662593Y-83960303D01*
X72634250Y-83891875D01*
X72634250Y-83891874D01*
X72634249Y-83891872D01*
X72619800Y-83819234D01*
X72619800Y-83745166D01*
X72634249Y-83672528D01*
X72634250Y-83672525D01*
X72662593Y-83604097D01*
X72703742Y-83542514D01*
X72756114Y-83490142D01*
X72817697Y-83448993D01*
X72886125Y-83420650D01*
X72886126Y-83420650D01*
X72886128Y-83420649D01*
X72958766Y-83406200D01*
X73032834Y-83406200D01*
X73105474Y-83420649D01*
X73148896Y-83438635D01*
X73172345Y-83445748D01*
X73196731Y-83448150D01*
X73221117Y-83445748D01*
X73244566Y-83438635D01*
X73266176Y-83427084D01*
X73285118Y-83411539D01*
X73300664Y-83392597D01*
X73312215Y-83370986D01*
X73319328Y-83347538D01*
X73334249Y-83272527D01*
X73338401Y-83262504D01*
X73362593Y-83204097D01*
X73403742Y-83142514D01*
X73456114Y-83090142D01*
X73517697Y-83048993D01*
X73586125Y-83020650D01*
X73586126Y-83020650D01*
X73586128Y-83020649D01*
X73658766Y-83006200D01*
X73732834Y-83006200D01*
X73805477Y-83020649D01*
X73847747Y-83038159D01*
X73871196Y-83045273D01*
X73895582Y-83047675D01*
X73919968Y-83045273D01*
X73943417Y-83038161D01*
X73965028Y-83026610D01*
X73983970Y-83011065D01*
X73999515Y-82992123D01*
X74011066Y-82970512D01*
X74018180Y-82947063D01*
X74020582Y-82922677D01*
X74018180Y-82898291D01*
X74011068Y-82874842D01*
X73999516Y-82853231D01*
X73957205Y-82789908D01*
X73924151Y-82710108D01*
X73907300Y-82625390D01*
X73907300Y-82539010D01*
X73924151Y-82454292D01*
X73957205Y-82374492D01*
X74008145Y-82298255D01*
X74019696Y-82276645D01*
X74026809Y-82253196D01*
X74029211Y-82228810D01*
X74026809Y-82204424D01*
X74022621Y-82190618D01*
X74023869Y-82191452D01*
X74046508Y-82200829D01*
X74070541Y-82205610D01*
X74095045Y-82205610D01*
X74119078Y-82200830D01*
X74130628Y-82196697D01*
X74217892Y-82160551D01*
X74302610Y-82143700D01*
X74388990Y-82143700D01*
X74473708Y-82160551D01*
X74473708Y-82160551D01*
G37*
G36*
X73643515Y-80965258D02*
G01*
X73761522Y-81001055D01*
X73870268Y-81059181D01*
X73965590Y-81137410D01*
X74043819Y-81232732D01*
X74101945Y-81341478D01*
X74137742Y-81459485D01*
X74149828Y-81582200D01*
X74137742Y-81704915D01*
X74101945Y-81822922D01*
X74043819Y-81931668D01*
X73986169Y-82001914D01*
X73972555Y-82022288D01*
X73963178Y-82044927D01*
X73958397Y-82068960D01*
X73958397Y-82093464D01*
X73963177Y-82117497D01*
X73964123Y-82119781D01*
X73952047Y-82113326D01*
X73928598Y-82106213D01*
X73904212Y-82103811D01*
X73879826Y-82106213D01*
X73845288Y-82118571D01*
X73766748Y-82160551D01*
X73761519Y-82163346D01*
X73702518Y-82181244D01*
X73643515Y-82199142D01*
X73551546Y-82208200D01*
X72340054Y-82208200D01*
X72248085Y-82199142D01*
X72130078Y-82163345D01*
X72021332Y-82105219D01*
X71926010Y-82026990D01*
X71847781Y-81931668D01*
X71789655Y-81822922D01*
X71753858Y-81704915D01*
X71741772Y-81582200D01*
X71753858Y-81459485D01*
X71789655Y-81341478D01*
X71847781Y-81232732D01*
X71926010Y-81137410D01*
X72021332Y-81059181D01*
X72130078Y-81001055D01*
X72248085Y-80965258D01*
X72340054Y-80956200D01*
X73551546Y-80956200D01*
X73643515Y-80965258D01*
X73643515Y-80965258D01*
G37*
G36*
X70643515Y-80965258D02*
G01*
X70761522Y-81001055D01*
X70870268Y-81059181D01*
X70965590Y-81137410D01*
X71043819Y-81232732D01*
X71101945Y-81341478D01*
X71137742Y-81459485D01*
X71149828Y-81582200D01*
X71137742Y-81704915D01*
X71101945Y-81822922D01*
X71043819Y-81931668D01*
X70965590Y-82026990D01*
X70870268Y-82105219D01*
X70761522Y-82163345D01*
X70643515Y-82199142D01*
X70551546Y-82208200D01*
X69340054Y-82208200D01*
X69248085Y-82199142D01*
X69130078Y-82163345D01*
X69021332Y-82105219D01*
X68926010Y-82026990D01*
X68847781Y-81931668D01*
X68789655Y-81822922D01*
X68753858Y-81704915D01*
X68741772Y-81582200D01*
X68753858Y-81459485D01*
X68789655Y-81341478D01*
X68847781Y-81232732D01*
X68926010Y-81137410D01*
X69021332Y-81059181D01*
X69130078Y-81001055D01*
X69248085Y-80965258D01*
X69340054Y-80956200D01*
X70551546Y-80956200D01*
X70643515Y-80965258D01*
X70643515Y-80965258D01*
G37*
G36*
X86482640Y-77272020D02*
G01*
X86080640Y-77272020D01*
X86080640Y-76170020D01*
X86482640Y-76170020D01*
X86482640Y-77272020D01*
X86482640Y-77272020D01*
G37*
G36*
X82402640Y-77272020D02*
G01*
X82000640Y-77272020D01*
X82000640Y-76170020D01*
X82402640Y-76170020D01*
X82402640Y-77272020D01*
X82402640Y-77272020D01*
G37*
G36*
X85692640Y-74472020D02*
G01*
X82790640Y-74472020D01*
X82790640Y-73670020D01*
X85692640Y-73670020D01*
X85692640Y-74472020D01*
X85692640Y-74472020D01*
G37*
M02*
