G04 #@! TF.GenerationSoftware,KiCad,Pcbnew,(5.1.4-0-10_14)*
G04 #@! TF.CreationDate,2020-04-27T00:49:31-05:00*
G04 #@! TF.ProjectId,Lifedatalink_v1_revA,4c696665-6461-4746-916c-696e6b5f7631,rev?*
G04 #@! TF.SameCoordinates,Original*
G04 #@! TF.FileFunction,Profile,NP*
%FSLAX46Y46*%
G04 Gerber Fmt 4.6, Leading zero omitted, Abs format (unit mm)*
G04 Created by KiCad (PCBNEW (5.1.4-0-10_14)) date 2020-04-27 00:49:31*
%MOMM*%
%LPD*%
G04 APERTURE LIST*
%ADD10C,0.050000*%
G04 APERTURE END LIST*
D10*
X97028000Y-126873000D02*
G75*
G02X98298000Y-125603000I1270000J0D01*
G01*
X100838000Y-125603000D02*
G75*
G02X102108000Y-126873000I0J-1270000D01*
G01*
X97028000Y-126873000D02*
X97028001Y-131318001D01*
X100838000Y-125603000D02*
X98298000Y-125603000D01*
X102108000Y-131318001D02*
X102108000Y-126873000D01*
X102108000Y-131318001D02*
G75*
G02X97028001Y-131318001I-2540000J-6349999D01*
G01*
X105918000Y-117983000D02*
G75*
G02X104648000Y-116713000I0J1270000D01*
G01*
X104648000Y-110363000D02*
G75*
G02X105918000Y-109093000I1270000J0D01*
G01*
X105918000Y-117983000D02*
X111633000Y-117983000D01*
X104648000Y-110363000D02*
X104648000Y-116713000D01*
X111633001Y-109093001D02*
X105918000Y-109093000D01*
X111633001Y-109093001D02*
G75*
G02X111633001Y-117982999I5079999J-4444999D01*
G01*
X78613000Y-109093000D02*
G75*
G02X79883000Y-110363000I0J-1270000D01*
G01*
X79883000Y-116713000D02*
G75*
G02X78613000Y-117983000I-1270000J0D01*
G01*
X78613000Y-109093000D02*
X72897999Y-109093001D01*
X79883000Y-116713000D02*
X79883000Y-110363000D01*
X72897999Y-117982999D02*
X78613000Y-117983000D01*
X72897999Y-117982999D02*
G75*
G02X72897999Y-109093001I-5079999J4444999D01*
G01*
X100263960Y-112448340D02*
G75*
G02X102041960Y-114226340I0J-1778000D01*
G01*
X102041960Y-120703340D02*
G75*
G02X100263960Y-122481340I-1778000J0D01*
G01*
X84515960Y-122481340D02*
G75*
G02X82737960Y-120703340I0J1778000D01*
G01*
X82737960Y-114226340D02*
G75*
G02X84515960Y-112448340I1778000J0D01*
G01*
X82737960Y-120703340D02*
X82737960Y-114226340D01*
X100263960Y-122481340D02*
X84515960Y-122481340D01*
X102041960Y-114226340D02*
X102041960Y-120703340D01*
X84515960Y-112448340D02*
X100263960Y-112448340D01*
X69773800Y-97358200D02*
G75*
G02X67868800Y-95453200I0J1905000D01*
G01*
X67868800Y-82499200D02*
G75*
G02X69773800Y-80594200I1905000J0D01*
G01*
X101650800Y-80594200D02*
G75*
G02X103555800Y-82499200I0J-1905000D01*
G01*
X103555800Y-95453200D02*
G75*
G02X101650800Y-97358200I-1905000J0D01*
G01*
X103555800Y-82499200D02*
X103555800Y-95453200D01*
X69773800Y-80594200D02*
X101650800Y-80594200D01*
X67868800Y-95453200D02*
X67868800Y-82499200D01*
X101650800Y-97358200D02*
X69773800Y-97358200D01*
X86781640Y-72118220D02*
G75*
G02X87416640Y-72753220I0J-635000D01*
G01*
X81066640Y-72753220D02*
G75*
G02X81701640Y-72118220I635000J0D01*
G01*
X86781640Y-72118220D02*
X81701640Y-72118220D01*
X81066640Y-72753220D02*
X81066640Y-76944220D01*
X87416640Y-76944220D02*
X87416640Y-72753220D01*
X81701640Y-77579220D02*
G75*
G02X81066640Y-76944220I0J635000D01*
G01*
X87416640Y-76944220D02*
G75*
G02X86781640Y-77579220I-635000J0D01*
G01*
X81701640Y-77579220D02*
X86781640Y-77579220D01*
X97541080Y-106212640D02*
X97541080Y-108752640D01*
X93731080Y-106212640D02*
X93731080Y-108752640D01*
X97541080Y-108752640D02*
G75*
G02X96906080Y-109387640I-635000J0D01*
G01*
X94366080Y-109387640D02*
G75*
G02X93731080Y-108752640I0J635000D01*
G01*
X97541080Y-106212640D02*
G75*
G02X98176080Y-105577640I635000J0D01*
G01*
X98811080Y-104942640D02*
G75*
G02X98176080Y-105577640I-635000J0D01*
G01*
X93096080Y-105577640D02*
G75*
G02X93731080Y-106212640I0J-635000D01*
G01*
X93096080Y-105577640D02*
G75*
G02X92461080Y-104942640I0J635000D01*
G01*
X93096080Y-100497640D02*
X98176080Y-100497640D01*
X98176080Y-100497640D02*
G75*
G02X98811080Y-101132640I0J-635000D01*
G01*
X92461080Y-101132640D02*
G75*
G02X93096080Y-100497640I635000J0D01*
G01*
X92461080Y-104942640D02*
X92461080Y-101132640D01*
X96906080Y-109387640D02*
X94366080Y-109387640D01*
X98811080Y-101132640D02*
X98811080Y-104942640D01*
M02*
